<?xml version="1.0" encoding="utf-8" ?>
<svg baseProfile="full" height="3955" version="1.1" viewBox="-1412.5,-1977.5,2825,3955" width="2825" xmlns="http://www.w3.org/2000/svg" xmlns:ev="http://www.w3.org/2001/xml-events" xmlns:xlink="http://www.w3.org/1999/xlink"><defs><g id="Group"><path d="M7.099637031555176,-57.369930267333984 C 25.37213897705078,-69.947998046875 44.29423904418945,-83.17566680908203 62.56673812866211,-96.18680572509766 C 59.91529083251953,-73.58363342285156 57.9134407043457,-51.196998596191406 56.561195373535156,-29.026897430419922 C 40.074005126953125,-38.47457504272461 23.586824417114258,-47.92224884033203 7.099637031555176,-57.369930267333984" fill="rgb(65,65,65)" opacity="1.0" stroke="rgb(65,65,65)" /><path d="M-53.77019500732422,-35.352874755859375 C -56.83468246459961,-54.66859436035156 -59.466102600097656,-74.6339111328125 -61.231388092041016,-93.94963073730469 C -44.426170349121094,-82.7031478881836 -27.18788719177246,-71.6731948852539 -9.949603080749512,-62.15896987915039 C -24.55646514892578,-53.22360610961914 -39.163330078125,-44.288238525390625 -53.77019500732422,-35.352874755859375" fill="rgb(65,65,65)" opacity="1.0" stroke="rgb(65,65,65)" /><path d="M-70.0,0.0 C -70.0,-38.648765563964844 -38.648765563964844,-70.0 0.0,-70.0 C 38.648765563964844,-70.0 70.0,-38.648765563964844 70.0,0.0 C 70.0,38.648765563964844 38.648765563964844,70.0 0.0,70.0 C -38.648765563964844,70.0 -70.0,38.648765563964844 -70.0,0.0" fill="rgb(65,65,65)" opacity="1.0" stroke="rgb(65,65,65)" /><path d="M-63.097412109375,4.150224208831787 C -42.06494140625,22.344640731811523 -27.07540512084961,32.929901123046875 0.0,32.929901123046875 C 27.07540512084961,32.929901123046875 42.06494140625,22.344640731811523 63.097412109375,4.150224208831787 C 63.18842315673828,36.49375915527344 34.05257034301758,64.37013244628906 0.0,64.37013244628906 C -34.05257034301758,64.37013244628906 -63.18842315673828,36.49375915527344 -63.097412109375,4.150224208831787" fill="rgb(255,255,255)" opacity="1.0" stroke="rgb(255,255,255)" /><path d="M-34.63603973388672,-0.06242528557777405 C -38.21430206298828,-5.346274375915527 -42.31468200683594,-10.63012409210205 -45.37082290649414,-15.913972854614258 C -43.58865737915039,-22.283830642700195 -41.702064514160156,-28.653688430786133 -39.7110481262207,-35.0235481262207 C -32.784263610839844,-37.00063705444336 -25.753055572509766,-37.93349075317383 -18.61742401123047,-37.822105407714844 C -16.57071304321289,-30.7700138092041 -15.359394073486328,-23.822345733642578 -14.983466148376465,-16.979097366333008 C -17.956066131591797,-16.122819900512695 -20.928668975830078,-15.266545295715332 -23.901268005371094,-14.41026782989502 C -25.537240982055664,-16.798095703125 -27.173215866088867,-19.185922622680664 -28.809188842773438,-21.573747634887695 C -27.465604782104492,-24.25396156311035 -26.644136428833008,-27.038599014282227 -26.344789505004883,-29.927658081054688 C -30.131895065307617,-28.43091583251953 -33.71015167236328,-27.769563674926758 -37.49726104736328,-25.646278381347656 C -37.75483703613281,-20.202314376831055 -37.803565979003906,-15.176044464111328 -37.64344787597656,-10.567469596862793 C -29.811656951904297,-6.188627243041992 -22.81525993347168,-2.7496001720428467 -14.670199394226074,-0.2503875494003296 C -9.261041641235352,-5.555122375488281 -4.165157318115234,-11.068703651428223 0.6174574494361877,-16.791133880615234 C 0.16495388746261597,-18.9213809967041 0.23456984758377075,-21.156051635742188 0.8263052105903625,-23.495145797729492 C -4.0189619064331055,-33.49895477294922 -10.01289176940918,-43.816036224365234 -15.275854110717773,-53.19329833984375 C -25.579010009765625,-51.57124328613281 -35.88216781616211,-49.21822738647461 -46.18532180786133,-46.13424301147461 C -50.73820495605469,-36.562049865722656 -55.60435485839844,-23.961572647094727 -59.008575439453125,-12.82302474975586 C -53.16083908081055,-4.900731086730957 -45.746742248535156,3.9613771438598633 -38.64591598510742,10.421735763549805 C -30.64704704284668,10.3312349319458 -22.857027053833008,9.71861457824707 -15.27585506439209,8.583874702453613 C -21.729249954223633,5.701774597167969 -28.18264389038086,2.8196747303009033 -34.63603973388672,-0.06242528557777405" fill="rgb(255,255,255)" opacity="1.0" stroke="rgb(255,255,255)" /><path d="M27.612586975097656,-40.577293395996094 C 29.549896240234375,-40.40117645263672 30.656299591064453,-40.49256134033203 32.6352424621582,-40.42833709716797 C 38.904747009277344,-32.6894416809082 47.26540756225586,-24.34613609313965 49.777462005615234,-19.677215576171875 C 46.548614501953125,-14.041406631469727 43.63104248046875,-9.953507423400879 41.50709533691406,-5.241654396057129 C 35.63645935058594,-5.182949542999268 30.77104949951172,-5.393268585205078 26.590913772583008,-5.333009243011475 C 24.888427734375,-9.442453384399414 22.48904037475586,-13.317322731018066 21.92801284790039,-15.738077163696289 C 24.14678955078125,-17.9775390625 26.819536209106445,-19.792295455932617 28.8759822845459,-20.579442977905273 C 31.113719940185547,-16.713441848754883 31.212135314941406,-13.544313430786133 33.74685287475586,-9.78227710723877 C 35.556400299072266,-13.453191757202148 38.49745178222656,-18.3187313079834 39.49184036254883,-21.298959732055664 C 36.49781799316406,-25.246076583862305 34.6461181640625,-27.855487823486328 32.4272575378418,-30.231243133544922 C 27.730749130249023,-29.585474014282227 24.248098373413086,-29.53913688659668 19.85374641418457,-29.000181198120117 C 15.157241821289062,-22.659896850585938 11.639690399169922,-18.97624397277832 7.824119567871094,-12.760180473327637 C 12.227094650268555,-4.247758865356445 14.90246295928955,2.841609001159668 19.10190200805664,9.043535232543945 C 27.350183486938477,9.988009452819824 35.216617584228516,10.382145881652832 41.9539680480957,10.212752342224121 C 47.24098587036133,5.873655319213867 51.58994674682617,2.8646178245544434 56.093013763427734,-0.5801743268966675 C 59.145751953125,-6.7443389892578125 62.27385711669922,-12.812027931213379 63.1871223449707,-17.154661178588867 C 60.8975715637207,-23.612361907958984 59.76790237426758,-27.890296936035156 58.04783630371094,-32.90981674194336 C 51.553768157958984,-39.68181610107422 41.520423889160156,-49.38432693481445 35.105831146240234,-53.41920852661133 C 26.697031021118164,-50.202430725097656 17.479703903198242,-45.443511962890625 13.490853309631348,-43.38074493408203 C 11.810446739196777,-40.80310821533203 9.70953369140625,-38.34559631347656 7.974487781524658,-32.609073638916016 C 13.088784217834473,-34.31656265258789 25.433557510375977,-39.6656608581543 27.612586975097656,-40.577293395996094" fill="rgb(255,255,255)" opacity="1.0" stroke="rgb(255,255,255)" /><path d="M16.112064361572266,27.725025177001953 C 15.497559547424316,27.91350746154785 14.883054733276367,28.101993560791016 14.268550872802734,28.290475845336914 C 17.735143661499023,39.59248733520508 21.201736450195312,50.894493103027344 24.6683292388916,62.196502685546875 C 25.2828311920166,62.008018493652344 25.897336959838867,61.81953811645508 26.511838912963867,61.63105392456055 C 23.04524803161621,50.329044342041016 19.578655242919922,39.027034759521484 16.112064361572266,27.725025177001953" fill="rgb(65,65,65)" opacity="1.0" stroke="rgb(65,65,65)" /><path d="M33.67277526855469,19.674495697021484 C 33.12854766845703,20.01648712158203 32.584320068359375,20.35848045349121 32.04009246826172,20.70047378540039 C 37.20246124267578,28.91554832458496 42.36483383178711,37.130619049072266 47.52720260620117,45.3456916809082 C 48.07142639160156,45.003700256347656 48.61565399169922,44.66170883178711 49.15987777709961,44.3197135925293 C 43.99750900268555,36.10464096069336 38.83514404296875,27.889570236206055 33.67277526855469,19.674495697021484" fill="rgb(65,65,65)" opacity="1.0" stroke="rgb(65,65,65)" /><path d="M46.41122055053711,11.826555252075195 C 45.97856903076172,12.301900863647461 45.54591369628906,12.777244567871094 45.11326217651367,13.25259017944336 C 50.092506408691406,17.784635543823242 55.07175064086914,22.316682815551758 60.050994873046875,26.848730087280273 C 60.483646392822266,26.37338638305664 60.91630172729492,25.898040771484375 61.34895324707031,25.422697067260742 C 56.36970901489258,20.890647888183594 51.390464782714844,16.35860252380371 46.41122055053711,11.826555252075195" fill="rgb(65,65,65)" opacity="1.0" stroke="rgb(65,65,65)" /><path d="M-0.9641395807266235,30.83709716796875 C -0.3213784396648407,30.83709716796875 0.321382611989975,30.83709716796875 0.9641437530517578,30.83709716796875 C 0.9641437530517578,42.6588020324707 0.9641437530517578,54.48050308227539 0.9641437530517578,66.30220794677734 C 0.321382611989975,66.30220794677734 -0.3213784396648407,66.30220794677734 -0.9641395807266235,66.30220794677734 C -0.9641395807266235,54.48050308227539 -0.9641395807266235,42.6588020324707 -0.9641395807266235,30.83709716796875" fill="rgb(65,65,65)" opacity="1.0" stroke="rgb(65,65,65)" /><path d="M-16.112096786499023,27.725025177001953 C -15.497591972351074,27.91350746154785 -14.883086204528809,28.101993560791016 -14.268582344055176,28.290475845336914 C -17.73517608642578,39.59248733520508 -21.20176887512207,50.894493103027344 -24.66836166381836,62.196502685546875 C -25.282865524291992,62.008018493652344 -25.897369384765625,61.81953811645508 -26.511873245239258,61.63105392456055 C -23.04528045654297,50.329044342041016 -19.57868766784668,39.027034759521484 -16.112096786499023,27.725025177001953" fill="rgb(65,65,65)" opacity="1.0" stroke="rgb(65,65,65)" /><path d="M-33.67280578613281,19.674495697021484 C -33.12858200073242,20.01648712158203 -32.584354400634766,20.35848045349121 -32.04012680053711,20.70047378540039 C -37.20249557495117,28.91554832458496 -42.3648681640625,37.130619049072266 -47.52723693847656,45.3456916809082 C -48.07146072387695,45.003700256347656 -48.615684509277344,44.66170883178711 -49.159912109375,44.3197135925293 C -43.99754333496094,36.10464096069336 -38.835174560546875,27.889570236206055 -33.67280578613281,19.674495697021484" fill="rgb(65,65,65)" opacity="1.0" stroke="rgb(65,65,65)" /><path d="M-46.4112548828125,11.826555252075195 C -45.97860336303711,12.301900863647461 -45.54594802856445,12.777244567871094 -45.11329650878906,13.25259017944336 C -50.0925407409668,17.784635543823242 -55.07178497314453,22.316682815551758 -60.051029205322266,26.848730087280273 C -60.483680725097656,26.37338638305664 -60.91633605957031,25.898040771484375 -61.3489875793457,25.422697067260742 C -56.36974334716797,20.890647888183594 -51.390499114990234,16.35860252380371 -46.4112548828125,11.826555252075195" fill="rgb(65,65,65)" opacity="1.0" stroke="rgb(65,65,65)" /></g></defs><rect fill="rgb(255,255,104)" height="100%" opacity="0.800000011920929" width="100%" x="-1412.5" y="-1977.5" /><use height="100" transform="rotate(57.53660263149046,-1421.9381103515625,1711.204833984375)" width="100" x="-1421.9381103515625" xlink:href="#Group" y="1711.204833984375" /><use height="100" transform="rotate(-158.8373625857153,-984.1735229492188,1746.7467041015625)" width="100" x="-984.1735229492188" xlink:href="#Group" y="1746.7467041015625" /><use height="100" transform="rotate(-134.75400771837,-600.2738647460938,1735.081298828125)" width="100" x="-600.2738647460938" xlink:href="#Group" y="1735.081298828125" /><use height="100" transform="rotate(135.19233168672662,-190.9044189453125,1714.7274169921875)" width="100" x="-190.9044189453125" xlink:href="#Group" y="1714.7274169921875" /><use height="100" transform="rotate(-154.53832826113333,175.63157653808594,1760.3499755859375)" width="100" x="175.63157653808594" xlink:href="#Group" y="1760.3499755859375" /><use height="100" transform="rotate(-68.26909605263235,620.1459350585938,1736.0848388671875)" width="100" x="620.1459350585938" xlink:href="#Group" y="1736.0848388671875" /><use height="100" transform="rotate(87.78316516295264,1015.73681640625,1761.9244384765625)" width="100" x="1015.73681640625" xlink:href="#Group" y="1761.9244384765625" /><use height="100" transform="rotate(23.378660814218275,1396.7232666015625,1718.7584228515625)" width="100" x="1396.7232666015625" xlink:href="#Group" y="1718.7584228515625" /><use height="100" transform="rotate(-176.94711043708102,-1216.2742919921875,1358.9244384765625)" width="100" x="-1216.2742919921875" xlink:href="#Group" y="1358.9244384765625" /><use height="100" transform="rotate(32.610230570931805,-775.9143676757812,1413.8052978515625)" width="100" x="-775.9143676757812" xlink:href="#Group" y="1413.8052978515625" /><use height="100" transform="rotate(166.392409695385,-428.4732360839844,1383.1558837890625)" width="100" x="-428.4732360839844" xlink:href="#Group" y="1383.1558837890625" /><use height="100" transform="rotate(-118.25384902673434,26.348949432373047,1392.7684326171875)" width="100" x="26.348949432373047" xlink:href="#Group" y="1392.7684326171875" /><use height="100" transform="rotate(-43.931220858798646,382.9959716796875,1390.3135986328125)" width="100" x="382.9959716796875" xlink:href="#Group" y="1390.3135986328125" /><use height="100" transform="rotate(-144.35087341866523,771.742431640625,1402.339111328125)" width="100" x="771.742431640625" xlink:href="#Group" y="1402.339111328125" /><use height="100" transform="rotate(32.90735328786059,1196.2733154296875,1385.8919677734375)" width="100" x="1196.2733154296875" xlink:href="#Group" y="1385.8919677734375" /><use height="100" transform="rotate(-142.40728373989808,-1416.014892578125,1055.3785400390625)" width="100" x="-1416.014892578125" xlink:href="#Group" y="1055.3785400390625" /><use height="100" transform="rotate(-73.41383973299159,-1016.8731079101562,1041.654296875)" width="100" x="-1016.8731079101562" xlink:href="#Group" y="1041.654296875" /><use height="100" transform="rotate(-173.80793401628165,-612.6130981445312,1067.941162109375)" width="100" x="-612.6130981445312" xlink:href="#Group" y="1067.941162109375" /><use height="100" transform="rotate(143.88418107246324,-179.7453155517578,1035.84326171875)" width="100" x="-179.7453155517578" xlink:href="#Group" y="1035.84326171875" /><use height="100" transform="rotate(-123.49249742128721,208.53765869140625,1058.0760498046875)" width="100" x="208.53765869140625" xlink:href="#Group" y="1058.0760498046875" /><use height="100" transform="rotate(112.01006541915027,629.5526123046875,1017.6336669921875)" width="100" x="629.5526123046875" xlink:href="#Group" y="1017.6336669921875" /><use height="100" transform="rotate(-57.9255683855896,977.25341796875,1049.268798828125)" width="100" x="977.25341796875" xlink:href="#Group" y="1049.268798828125" /><use height="100" transform="rotate(-84.04723995259617,1413.2890625,1026.5589599609375)" width="100" x="1413.2890625" xlink:href="#Group" y="1026.5589599609375" /><use height="100" transform="rotate(121.57238863848698,-1173.8135986328125,697.493896484375)" width="100" x="-1173.8135986328125" xlink:href="#Group" y="697.493896484375" /><use height="100" transform="rotate(149.20007433679802,-780.1978759765625,682.6019897460938)" width="100" x="-780.1978759765625" xlink:href="#Group" y="682.6019897460938" /><use height="100" transform="rotate(96.46242853302624,-411.7978820800781,687.5654907226562)" width="100" x="-411.7978820800781" xlink:href="#Group" y="687.5654907226562" /><use height="100" transform="rotate(-156.483807290282,22.948740005493164,672.0484619140625)" width="100" x="22.948740005493164" xlink:href="#Group" y="672.0484619140625" /><use height="100" transform="rotate(-149.5151212107029,400.3170166015625,687.4801635742188)" width="100" x="400.3170166015625" xlink:href="#Group" y="687.4801635742188" /><use height="100" transform="rotate(-120.04108518653857,772.071533203125,708.2559204101562)" width="100" x="772.071533203125" xlink:href="#Group" y="708.2559204101562" /><use height="100" transform="rotate(-83.51642250007176,1217.84423828125,697.9614868164062)" width="100" x="1217.84423828125" xlink:href="#Group" y="697.9614868164062" /><use height="100" transform="rotate(36.075179851493154,-1419.6195068359375,343.48223876953125)" width="100" x="-1419.6195068359375" xlink:href="#Group" y="343.48223876953125" /><use height="100" transform="rotate(-47.48112153524886,-987.8175659179688,335.9410095214844)" width="100" x="-987.8175659179688" xlink:href="#Group" y="335.9410095214844" /><use height="100" transform="rotate(-138.99135540640387,-607.517822265625,350.07244873046875)" width="100" x="-607.517822265625" xlink:href="#Group" y="350.07244873046875" /><use height="100" transform="rotate(132.2711401720647,-199.49441528320312,329.70361328125)" width="100" x="-199.49441528320312" xlink:href="#Group" y="329.70361328125" /><use height="100" transform="rotate(-131.27545179070907,201.2563018798828,352.8148498535156)" width="100" x="201.2563018798828" xlink:href="#Group" y="352.8148498535156" /><use height="100" transform="rotate(-64.53865786611253,599.381591796875,374.6356506347656)" width="100" x="599.381591796875" xlink:href="#Group" y="374.6356506347656" /><use height="100" transform="rotate(-153.65037349606558,972.6092529296875,334.2072448730469)" width="100" x="972.6092529296875" xlink:href="#Group" y="334.2072448730469" /><use height="100" transform="rotate(118.26215301982499,1428.9912109375,340.81915283203125)" width="100" x="1428.9912109375" xlink:href="#Group" y="340.81915283203125" /><use height="100" transform="rotate(-138.71183348159923,-1206.384033203125,19.779048919677734)" width="100" x="-1206.384033203125" xlink:href="#Group" y="19.779048919677734" /><use height="100" transform="rotate(-152.40541490722464,-799.8656616210938,-28.924598693847656)" width="100" x="-799.8656616210938" xlink:href="#Group" y="-28.924598693847656" /><use height="100" transform="rotate(23.747946904040347,-383.76861572265625,-2.377046823501587)" width="100" x="-383.76861572265625" xlink:href="#Group" y="-2.377046823501587" /><use height="100" transform="rotate(-48.63895193478057,21.617385864257812,16.069433212280273)" width="100" x="21.617385864257812" xlink:href="#Group" y="16.069433212280273" /><use height="100" transform="rotate(23.200860612093802,400.8262939453125,-27.148042678833008)" width="100" x="400.8262939453125" xlink:href="#Group" y="-27.148042678833008" /><use height="100" transform="rotate(-15.203067168215554,804.6676635742188,2.4520959854125977)" width="100" x="804.6676635742188" xlink:href="#Group" y="2.4520959854125977" /><use height="100" transform="rotate(-141.21695730174167,1186.15673828125,-2.8797786235809326)" width="100" x="1186.15673828125" xlink:href="#Group" y="-2.8797786235809326" /><use height="100" transform="rotate(117.99653967601546,-1372.572998046875,-316.7527160644531)" width="100" x="-1372.572998046875" xlink:href="#Group" y="-316.7527160644531" /><use height="100" transform="rotate(40.923694328934516,-982.980712890625,-365.6393127441406)" width="100" x="-982.980712890625" xlink:href="#Group" y="-365.6393127441406" /><use height="100" transform="rotate(-146.9940799485364,-576.8292236328125,-360.8403625488281)" width="100" x="-576.8292236328125" xlink:href="#Group" y="-360.8403625488281" /><use height="100" transform="rotate(117.40319905516891,-181.45159912109375,-347.5308532714844)" width="100" x="-181.45159912109375" xlink:href="#Group" y="-347.5308532714844" /><use height="100" transform="rotate(-112.3480499785108,203.6814727783203,-341.9756164550781)" width="100" x="203.6814727783203" xlink:href="#Group" y="-341.9756164550781" /><use height="100" transform="rotate(-121.67286286384555,573.3673706054688,-368.61077880859375)" width="100" x="573.3673706054688" xlink:href="#Group" y="-368.61077880859375" /><use height="100" transform="rotate(-119.74196584604422,1004.199951171875,-328.4005126953125)" width="100" x="1004.199951171875" xlink:href="#Group" y="-328.4005126953125" /><use height="100" transform="rotate(-122.77988933573847,1400.283203125,-345.50567626953125)" width="100" x="1400.283203125" xlink:href="#Group" y="-345.50567626953125" /><use height="100" transform="rotate(-23.362980182352192,-1208.5926513671875,-683.5850219726562)" width="100" x="-1208.5926513671875" xlink:href="#Group" y="-683.5850219726562" /><use height="100" transform="rotate(110.33545495116925,-797.6912841796875,-700.2296752929688)" width="100" x="-797.6912841796875" xlink:href="#Group" y="-700.2296752929688" /><use height="100" transform="rotate(18.075270941390492,-393.2528381347656,-690.3091430664062)" width="100" x="-393.2528381347656" xlink:href="#Group" y="-690.3091430664062" /><use height="100" transform="rotate(-66.79449478855359,-28.321500778198242,-676.5966186523438)" width="100" x="-28.321500778198242" xlink:href="#Group" y="-676.5966186523438" /><use height="100" transform="rotate(54.73807333941581,380.6326904296875,-697.8880004882812)" width="100" x="380.6326904296875" xlink:href="#Group" y="-697.8880004882812" /><use height="100" transform="rotate(-170.18548810371618,821.6605224609375,-710.7266845703125)" width="100" x="821.6605224609375" xlink:href="#Group" y="-710.7266845703125" /><use height="100" transform="rotate(81.53414487310691,1217.8258056640625,-711.8065795898438)" width="100" x="1217.8258056640625" xlink:href="#Group" y="-711.8065795898438" /><use height="100" transform="rotate(-18.05596803561787,-1414.682373046875,-1059.7352294921875)" width="100" x="-1414.682373046875" xlink:href="#Group" y="-1059.7352294921875" /><use height="100" transform="rotate(-36.52014340261766,-989.6131591796875,-1014.2245483398438)" width="100" x="-989.6131591796875" xlink:href="#Group" y="-1014.2245483398438" /><use height="100" transform="rotate(148.82113032106366,-628.99853515625,-1010.1040649414062)" width="100" x="-628.99853515625" xlink:href="#Group" y="-1010.1040649414062" /><use height="100" transform="rotate(-139.90957224765737,-184.664794921875,-1024.2039794921875)" width="100" x="-184.664794921875" xlink:href="#Group" y="-1024.2039794921875" /><use height="100" transform="rotate(102.64882479457961,176.56932067871094,-1046.7186279296875)" width="100" x="176.56932067871094" xlink:href="#Group" y="-1046.7186279296875" /><use height="100" transform="rotate(58.260396016368894,590.6653442382812,-1013.4014282226562)" width="100" x="590.6653442382812" xlink:href="#Group" y="-1013.4014282226562" /><use height="100" transform="rotate(-114.03981500086202,979.5775146484375,-1040.873291015625)" width="100" x="979.5775146484375" xlink:href="#Group" y="-1040.873291015625" /><use height="100" transform="rotate(-69.36439951773536,1380.0887451171875,-1025.6053466796875)" width="100" x="1380.0887451171875" xlink:href="#Group" y="-1025.6053466796875" /><use height="100" transform="rotate(-50.233111667076706,-1187.3045654296875,-1382.9227294921875)" width="100" x="-1187.3045654296875" xlink:href="#Group" y="-1382.9227294921875" /><use height="100" transform="rotate(-147.81067161299006,-810.6798706054688,-1384.06689453125)" width="100" x="-810.6798706054688" xlink:href="#Group" y="-1384.06689453125" /><use height="100" transform="rotate(-147.4241661719819,-428.5819396972656,-1378.8341064453125)" width="100" x="-428.5819396972656" xlink:href="#Group" y="-1378.8341064453125" /><use height="100" transform="rotate(158.66443242487995,-4.744879245758057,-1366.9229736328125)" width="100" x="-4.744879245758057" xlink:href="#Group" y="-1366.9229736328125" /><use height="100" transform="rotate(167.97531647847214,376.52569580078125,-1409.6297607421875)" width="100" x="376.52569580078125" xlink:href="#Group" y="-1409.6297607421875" /><use height="100" transform="rotate(-62.193092443312466,800.60693359375,-1368.1861572265625)" width="100" x="800.60693359375" xlink:href="#Group" y="-1368.1861572265625" /><use height="100" transform="rotate(105.3834529114535,1206.3388671875,-1404.6630859375)" width="100" x="1206.3388671875" xlink:href="#Group" y="-1404.6630859375" /><use height="100" transform="rotate(-91.49467603391314,-1428.7508544921875,-1703.1226806640625)" width="100" x="-1428.7508544921875" xlink:href="#Group" y="-1703.1226806640625" /><use height="100" transform="rotate(15.921149548632645,-1021.2122802734375,-1745.180908203125)" width="100" x="-1021.2122802734375" xlink:href="#Group" y="-1745.180908203125" /><use height="100" transform="rotate(-91.76472115129644,-620.3863525390625,-1744.3271484375)" width="100" x="-620.3863525390625" xlink:href="#Group" y="-1744.3271484375" /><use height="100" transform="rotate(110.97481386541243,-189.3094482421875,-1734.73291015625)" width="100" x="-189.3094482421875" xlink:href="#Group" y="-1734.73291015625" /><use height="100" transform="rotate(-153.96209209067752,183.23599243164062,-1760.58642578125)" width="100" x="183.23599243164062" xlink:href="#Group" y="-1760.58642578125" /><use height="100" transform="rotate(82.500937694188,617.86865234375,-1733.0467529296875)" width="100" x="617.86865234375" xlink:href="#Group" y="-1733.0467529296875" /><use height="100" transform="rotate(48.737555038946574,983.3917236328125,-1740.961181640625)" width="100" x="983.3917236328125" xlink:href="#Group" y="-1740.961181640625" /><use height="100" transform="rotate(90.26234881812131,1393.69384765625,-1736.6015625)" width="100" x="1393.69384765625" xlink:href="#Group" y="-1736.6015625" /></svg>