<?xml version="1.0" encoding="utf-8" ?>
<svg baseProfile="full" height="3955" version="1.1" viewBox="-1412.5,-1977.5,2825,3955" width="2825" xmlns="http://www.w3.org/2000/svg" xmlns:ev="http://www.w3.org/2001/xml-events" xmlns:xlink="http://www.w3.org/1999/xlink"><defs><g id="logo_1"><path d="M5.071168899536133,-40.978519439697266 C 18.122955322265625,-49.962852478027344 31.63874053955078,-59.41119384765625 44.690528869628906,-68.70486450195312 C 42.796634674072266,-52.55973815917969 41.36674499511719,-36.56928634643555 40.40085220336914,-20.733497619628906 C 28.624290466308594,-27.48183822631836 16.84773063659668,-34.23017883300781 5.071168899536133,-40.978519439697266" fill="rgb(255,255,255)" opacity="1.0" stroke="rgb(255,255,255)" /><path d="M-38.40727996826172,-25.252052307128906 C -40.5962028503418,-39.04899597167969 -42.47578811645508,-53.3099365234375 -43.7367057800293,-67.10688018798828 C -31.73297882080078,-59.073673248291016 -19.419918060302734,-51.19513702392578 -7.10685920715332,-44.39926528930664 C -17.540332794189453,-38.01686096191406 -27.973806381225586,-31.634456634521484 -38.40727996826172,-25.252052307128906" fill="rgb(255,255,255)" opacity="1.0" stroke="rgb(255,255,255)" /><path d="M-50.0,0.0 C -50.0,-27.606260299682617 -27.606260299682617,-50.0 0.0,-50.0 C 27.606260299682617,-50.0 50.0,-27.606260299682617 50.0,0.0 C 50.0,27.606260299682617 27.606260299682617,50.0 0.0,50.0 C -27.606260299682617,50.0 -50.0,27.606260299682617 -50.0,0.0" fill="rgb(255,255,255)" opacity="1.0" stroke="rgb(255,255,255)" /><path d="M-24.740028381347656,-0.044589489698410034 C -27.295928955078125,-3.818767547607422 -30.224773406982422,-7.592945575714111 -32.40773010253906,-11.3671236038208 C -31.134754180908203,-15.917022705078125 -29.787189483642578,-20.466920852661133 -28.365034103393555,-25.016820907592773 C -23.417329788208008,-26.429027557373047 -18.395038604736328,-27.09535026550293 -13.2981595993042,-27.015790939331055 C -11.836223602294922,-21.978580474853516 -10.970995903015137,-17.015960693359375 -10.702475547790527,-12.12792682647705 C -12.825761795043945,-11.516300201416016 -14.94904899597168,-10.904674530029297 -17.07233428955078,-10.293048858642578 C -18.240886688232422,-11.998639106750488 -19.409440994262695,-13.704230308532715 -20.577993392944336,-15.409819602966309 C -19.618289947509766,-17.32425880432129 -19.031526565551758,-19.313283920288086 -18.817707061767578,-21.37689971923828 C -21.522783279418945,-20.307796478271484 -24.07868003845215,-19.83540153503418 -26.78375816345215,-18.318771362304688 C -26.96773910522461,-14.430225372314453 -27.002546310424805,-10.840031623840332 -26.88817596435547,-7.548192977905273 C -21.29404067993164,-4.420448303222656 -16.296615600585938,-1.9640001058578491 -10.478713989257812,-0.1788482517004013 C -6.615029811859131,-3.967944622039795 -2.975112199783325,-7.906217098236084 0.4410410225391388,-11.993667602539062 C 0.11782420426607132,-13.515273094177246 0.16754989326000214,-15.111465454101562 0.5902180075645447,-16.782245635986328 C -2.8706870079040527,-23.927824020385742 -7.152065753936768,-31.297168731689453 -10.911324501037598,-37.99521255493164 C -18.270721435546875,-36.836605072021484 -25.63011932373047,-35.15587615966797 -32.98951721191406,-32.95302963256836 C -36.2415771484375,-26.115751266479492 -39.7173957824707,-17.11540985107422 -42.148983001708984,-9.159303665161133 C -37.97202682495117,-3.5005223751068115 -32.67624282836914,2.829555034637451 -27.604225158691406,7.44409704208374 C -21.8907470703125,7.379453659057617 -16.326448440551758,6.941867828369141 -10.911325454711914,6.131339073181152 C -15.520893096923828,4.072695732116699 -20.130460739135742,2.0140533447265625 -24.740028381347656,-0.044589489698410034" fill="rgb(81,81,81)" opacity="1.0" stroke="rgb(81,81,81)" /><path d="M19.723276138305664,-28.983779907226562 C 21.10706901550293,-28.857982635498047 21.897356033325195,-28.92325782775879 23.31088638305664,-28.877384185791016 C 27.789104461669922,-23.34960174560547 33.76100540161133,-17.390098571777344 35.555328369140625,-14.055153846740723 C 33.2490119934082,-10.029576301574707 31.16503143310547,-7.109647750854492 29.647926330566406,-3.7440390586853027 C 25.454612731933594,-3.7021067142486572 21.97932243347168,-3.852334499359131 18.993511199951172,-3.8092923164367676 C 17.777448654174805,-6.744609832763672 16.063600540161133,-9.512372970581055 15.662866592407227,-11.241483688354492 C 17.24770736694336,-12.841099739074707 19.15681266784668,-14.137354850769043 20.625701904296875,-14.699602127075195 C 22.224084854125977,-11.938173294067383 22.294382095336914,-9.67451000213623 24.104894638061523,-6.987340927124023 C 25.397428512573242,-9.60942268371582 27.498180389404297,-13.084808349609375 28.208457946777344,-15.213542938232422 C 26.069869995117188,-18.03291130065918 24.747228622436523,-19.89677619934082 23.16232681274414,-21.5937442779541 C 19.80767822265625,-21.13248062133789 17.320070266723633,-21.099384307861328 14.18124771118164,-20.71441650390625 C 10.826601028442383,-16.18564224243164 8.314064979553223,-13.554459571838379 5.588656425476074,-9.11441421508789 C 8.733638763427734,-3.0341134071350098 10.64461612701416,2.0297207832336426 13.64421558380127,6.459668159484863 C 19.535844802856445,7.134292125701904 25.154727935791016,7.415818214416504 29.967121124267578,7.294823169708252 C 33.743560791015625,4.195467948913574 36.84996032714844,2.0461554527282715 40.06644058227539,-0.41441023349761963 C 42.24696350097656,-4.817384719848633 44.4813232421875,-9.151448249816895 45.13365936279297,-12.253329277038574 C 43.49826431274414,-16.8659725189209 42.69136047363281,-19.921640396118164 41.46274185180664,-23.50701332092285 C 36.824119567871094,-28.344154357910156 29.65744400024414,-35.27452087402344 25.075593948364258,-38.156578063964844 C 19.069307327270508,-35.85887908935547 12.485503196716309,-32.459651947021484 9.636323928833008,-30.98624610900879 C 8.436033248901367,-29.145076751708984 6.935380935668945,-27.389711380004883 5.6960625648498535,-23.29219627380371 C 9.34913158416748,-24.511831283569336 18.166826248168945,-28.33261489868164 19.723276138305664,-28.983779907226562" fill="rgb(81,81,81)" opacity="1.0" stroke="rgb(81,81,81)" /><path d="M-45.069580078125,2.9644460678100586 C -30.046384811401367,15.960457801818848 -19.339574813842773,23.521358489990234 0.0,23.521358489990234 C 19.339574813842773,23.521358489990234 30.046384811401367,15.960457801818848 45.069580078125,2.9644460678100586 C 45.13459014892578,26.066970825195312 24.32326316833496,45.97866439819336 0.0,45.97866439819336 C -24.32326316833496,45.97866439819336 -45.13459014892578,26.066970825195312 -45.069580078125,2.9644460678100586" fill="rgb(81,81,81)" opacity="1.0" stroke="rgb(81,81,81)" /><path d="M11.50861644744873,19.8035888671875 C 11.069684982299805,19.938220977783203 10.630753517150879,20.072851181030273 10.191822052001953,20.207483291625977 C 12.667960166931152,28.28034782409668 15.144098281860352,36.35321044921875 17.620235443115234,44.42607498168945 C 18.059165954589844,44.29144287109375 18.498096466064453,44.15681457519531 18.937026977539062,44.02218246459961 C 16.460891723632812,35.949317932128906 13.984753608703613,27.876455307006836 11.50861644744873,19.8035888671875" fill="rgb(255,255,255)" opacity="1.0" stroke="rgb(255,255,255)" /><path d="M24.051982879638672,14.053210258483887 C 23.66324806213379,14.297491073608398 23.27451515197754,14.54177188873291 22.88578224182129,14.786052703857422 C 26.57318687438965,20.653963088989258 30.260595321655273,26.521869659423828 33.948001861572266,32.3897819519043 C 34.336734771728516,32.14550018310547 34.725467681884766,31.901220321655273 35.114200592041016,31.656938552856445 C 31.426794052124023,25.78902816772461 27.73938751220703,19.92112159729004 24.051982879638672,14.053210258483887" fill="rgb(255,255,255)" opacity="1.0" stroke="rgb(255,255,255)" /><path d="M33.15087127685547,8.447540283203125 C 32.841835021972656,8.787071228027344 32.53279495239258,9.126604080200195 32.223758697509766,9.466135025024414 C 35.78036117553711,12.703311920166016 39.33696365356445,15.940486907958984 42.8935661315918,19.17766571044922 C 43.202606201171875,18.838132858276367 43.51164245605469,18.49860191345215 43.820682525634766,18.159069061279297 C 40.26408004760742,14.921892166137695 36.70747756958008,11.68471622467041 33.15087127685547,8.447540283203125" fill="rgb(255,255,255)" opacity="1.0" stroke="rgb(255,255,255)" /><path d="M-0.6886711120605469,22.026498794555664 C -0.22955602407455444,22.026498794555664 0.2295590043067932,22.026498794555664 0.6886740922927856,22.026498794555664 C 0.6886740922927856,30.47057342529297 0.6886740922927856,38.91464614868164 0.6886740922927856,47.35872268676758 C 0.2295590043067932,47.35872268676758 -0.22955602407455444,47.35872268676758 -0.6886711120605469,47.35872268676758 C -0.6886711120605469,38.91464614868164 -0.6886711120605469,30.47057342529297 -0.6886711120605469,22.026498794555664" fill="rgb(255,255,255)" opacity="1.0" stroke="rgb(255,255,255)" /><path d="M-11.50864028930664,19.8035888671875 C -11.069707870483398,19.938220977783203 -10.630776405334473,20.072851181030273 -10.19184398651123,20.207483291625977 C -12.66798210144043,28.28034782409668 -15.144120216369629,36.35321044921875 -17.620258331298828,44.42607498168945 C -18.059188842773438,44.29144287109375 -18.49812126159668,44.15681457519531 -18.937053680419922,44.02218246459961 C -16.460914611816406,35.949317932128906 -13.984777450561523,27.876455307006836 -11.50864028930664,19.8035888671875" fill="rgb(255,255,255)" opacity="1.0" stroke="rgb(255,255,255)" /><path d="M-24.052003860473633,14.053210258483887 C -23.663272857666016,14.297491073608398 -23.274538040161133,14.54177188873291 -22.885805130004883,14.786052703857422 C -26.573211669921875,20.653963088989258 -30.2606201171875,26.521869659423828 -33.94802474975586,32.3897819519043 C -34.33675765991211,32.14550018310547 -34.72549057006836,31.901220321655273 -35.11422348022461,31.656938552856445 C -31.426816940307617,25.78902816772461 -27.739412307739258,19.92112159729004 -24.052003860473633,14.053210258483887" fill="rgb(255,255,255)" opacity="1.0" stroke="rgb(255,255,255)" /><path d="M-33.15089797973633,8.447540283203125 C -32.84185791015625,8.787071228027344 -32.53282165527344,9.126604080200195 -32.22378158569336,9.466135025024414 C -35.7803840637207,12.703311920166016 -39.33698654174805,15.940486907958984 -42.893592834472656,19.17766571044922 C -43.20262908935547,18.838132858276367 -43.51166915893555,18.49860191345215 -43.82070541381836,18.159069061279297 C -40.264102935791016,14.921892166137695 -36.70750045776367,11.68471622467041 -33.15089797973633,8.447540283203125" fill="rgb(255,255,255)" opacity="1.0" stroke="rgb(255,255,255)" /></g><g id="logo_2"><path d="M5.071168899536133,-40.978519439697266 C 18.122955322265625,-49.962852478027344 31.63874053955078,-59.41119384765625 44.690528869628906,-68.70486450195312 C 42.796634674072266,-52.55973815917969 41.36674499511719,-36.56928634643555 40.40085220336914,-20.733497619628906 C 28.624290466308594,-27.48183822631836 16.84773063659668,-34.23017883300781 5.071168899536133,-40.978519439697266" fill="rgb(255,238,154)" opacity="1.0" stroke="rgb(255,238,154)" /><path d="M-38.40727996826172,-25.252052307128906 C -40.5962028503418,-39.04899597167969 -42.47578811645508,-53.3099365234375 -43.7367057800293,-67.10688018798828 C -31.73297882080078,-59.073673248291016 -19.419918060302734,-51.19513702392578 -7.10685920715332,-44.39926528930664 C -17.540332794189453,-38.01686096191406 -27.973806381225586,-31.634456634521484 -38.40727996826172,-25.252052307128906" fill="rgb(255,238,154)" opacity="1.0" stroke="rgb(255,238,154)" /><path d="M-50.0,0.0 C -50.0,-27.606260299682617 -27.606260299682617,-50.0 0.0,-50.0 C 27.606260299682617,-50.0 50.0,-27.606260299682617 50.0,0.0 C 50.0,27.606260299682617 27.606260299682617,50.0 0.0,50.0 C -27.606260299682617,50.0 -50.0,27.606260299682617 -50.0,0.0" fill="rgb(255,238,154)" opacity="1.0" stroke="rgb(255,238,154)" /><path d="M-24.740028381347656,-0.044589489698410034 C -27.295928955078125,-3.818767547607422 -30.224773406982422,-7.592945575714111 -32.40773010253906,-11.3671236038208 C -31.134754180908203,-15.917022705078125 -29.787189483642578,-20.466920852661133 -28.365034103393555,-25.016820907592773 C -23.417329788208008,-26.429027557373047 -18.395038604736328,-27.09535026550293 -13.2981595993042,-27.015790939331055 C -11.836223602294922,-21.978580474853516 -10.970995903015137,-17.015960693359375 -10.702475547790527,-12.12792682647705 C -12.825761795043945,-11.516300201416016 -14.94904899597168,-10.904674530029297 -17.07233428955078,-10.293048858642578 C -18.240886688232422,-11.998639106750488 -19.409440994262695,-13.704230308532715 -20.577993392944336,-15.409819602966309 C -19.618289947509766,-17.32425880432129 -19.031526565551758,-19.313283920288086 -18.817707061767578,-21.37689971923828 C -21.522783279418945,-20.307796478271484 -24.07868003845215,-19.83540153503418 -26.78375816345215,-18.318771362304688 C -26.96773910522461,-14.430225372314453 -27.002546310424805,-10.840031623840332 -26.88817596435547,-7.548192977905273 C -21.29404067993164,-4.420448303222656 -16.296615600585938,-1.9640001058578491 -10.478713989257812,-0.1788482517004013 C -6.615029811859131,-3.967944622039795 -2.975112199783325,-7.906217098236084 0.4410410225391388,-11.993667602539062 C 0.11782420426607132,-13.515273094177246 0.16754989326000214,-15.111465454101562 0.5902180075645447,-16.782245635986328 C -2.8706870079040527,-23.927824020385742 -7.152065753936768,-31.297168731689453 -10.911324501037598,-37.99521255493164 C -18.270721435546875,-36.836605072021484 -25.63011932373047,-35.15587615966797 -32.98951721191406,-32.95302963256836 C -36.2415771484375,-26.115751266479492 -39.7173957824707,-17.11540985107422 -42.148983001708984,-9.159303665161133 C -37.97202682495117,-3.5005223751068115 -32.67624282836914,2.829555034637451 -27.604225158691406,7.44409704208374 C -21.8907470703125,7.379453659057617 -16.326448440551758,6.941867828369141 -10.911325454711914,6.131339073181152 C -15.520893096923828,4.072695732116699 -20.130460739135742,2.0140533447265625 -24.740028381347656,-0.044589489698410034" fill="rgb(81,81,81)" opacity="1.0" stroke="rgb(81,81,81)" /><path d="M19.723276138305664,-28.983779907226562 C 21.10706901550293,-28.857982635498047 21.897356033325195,-28.92325782775879 23.31088638305664,-28.877384185791016 C 27.789104461669922,-23.34960174560547 33.76100540161133,-17.390098571777344 35.555328369140625,-14.055153846740723 C 33.2490119934082,-10.029576301574707 31.16503143310547,-7.109647750854492 29.647926330566406,-3.7440390586853027 C 25.454612731933594,-3.7021067142486572 21.97932243347168,-3.852334499359131 18.993511199951172,-3.8092923164367676 C 17.777448654174805,-6.744609832763672 16.063600540161133,-9.512372970581055 15.662866592407227,-11.241483688354492 C 17.24770736694336,-12.841099739074707 19.15681266784668,-14.137354850769043 20.625701904296875,-14.699602127075195 C 22.224084854125977,-11.938173294067383 22.294382095336914,-9.67451000213623 24.104894638061523,-6.987340927124023 C 25.397428512573242,-9.60942268371582 27.498180389404297,-13.084808349609375 28.208457946777344,-15.213542938232422 C 26.069869995117188,-18.03291130065918 24.747228622436523,-19.89677619934082 23.16232681274414,-21.5937442779541 C 19.80767822265625,-21.13248062133789 17.320070266723633,-21.099384307861328 14.18124771118164,-20.71441650390625 C 10.826601028442383,-16.18564224243164 8.314064979553223,-13.554459571838379 5.588656425476074,-9.11441421508789 C 8.733638763427734,-3.0341134071350098 10.64461612701416,2.0297207832336426 13.64421558380127,6.459668159484863 C 19.535844802856445,7.134292125701904 25.154727935791016,7.415818214416504 29.967121124267578,7.294823169708252 C 33.743560791015625,4.195467948913574 36.84996032714844,2.0461554527282715 40.06644058227539,-0.41441023349761963 C 42.24696350097656,-4.817384719848633 44.4813232421875,-9.151448249816895 45.13365936279297,-12.253329277038574 C 43.49826431274414,-16.8659725189209 42.69136047363281,-19.921640396118164 41.46274185180664,-23.50701332092285 C 36.824119567871094,-28.344154357910156 29.65744400024414,-35.27452087402344 25.075593948364258,-38.156578063964844 C 19.069307327270508,-35.85887908935547 12.485503196716309,-32.459651947021484 9.636323928833008,-30.98624610900879 C 8.436033248901367,-29.145076751708984 6.935380935668945,-27.389711380004883 5.6960625648498535,-23.29219627380371 C 9.34913158416748,-24.511831283569336 18.166826248168945,-28.33261489868164 19.723276138305664,-28.983779907226562" fill="rgb(81,81,81)" opacity="1.0" stroke="rgb(81,81,81)" /><path d="M-45.069580078125,2.9644460678100586 C -30.046384811401367,15.960457801818848 -19.339574813842773,23.521358489990234 0.0,23.521358489990234 C 19.339574813842773,23.521358489990234 30.046384811401367,15.960457801818848 45.069580078125,2.9644460678100586 C 45.13459014892578,26.066970825195312 24.32326316833496,45.97866439819336 0.0,45.97866439819336 C -24.32326316833496,45.97866439819336 -45.13459014892578,26.066970825195312 -45.069580078125,2.9644460678100586" fill="rgb(81,81,81)" opacity="1.0" stroke="rgb(81,81,81)" /><path d="M11.50861644744873,19.8035888671875 C 11.069684982299805,19.938220977783203 10.630753517150879,20.072851181030273 10.191822052001953,20.207483291625977 C 12.667960166931152,28.28034782409668 15.144098281860352,36.35321044921875 17.620235443115234,44.42607498168945 C 18.059165954589844,44.29144287109375 18.498096466064453,44.15681457519531 18.937026977539062,44.02218246459961 C 16.460891723632812,35.949317932128906 13.984753608703613,27.876455307006836 11.50861644744873,19.8035888671875" fill="rgb(255,238,154)" opacity="1.0" stroke="rgb(255,238,154)" /><path d="M24.051982879638672,14.053210258483887 C 23.66324806213379,14.297491073608398 23.27451515197754,14.54177188873291 22.88578224182129,14.786052703857422 C 26.57318687438965,20.653963088989258 30.260595321655273,26.521869659423828 33.948001861572266,32.3897819519043 C 34.336734771728516,32.14550018310547 34.725467681884766,31.901220321655273 35.114200592041016,31.656938552856445 C 31.426794052124023,25.78902816772461 27.73938751220703,19.92112159729004 24.051982879638672,14.053210258483887" fill="rgb(255,238,154)" opacity="1.0" stroke="rgb(255,238,154)" /><path d="M33.15087127685547,8.447540283203125 C 32.841835021972656,8.787071228027344 32.53279495239258,9.126604080200195 32.223758697509766,9.466135025024414 C 35.78036117553711,12.703311920166016 39.33696365356445,15.940486907958984 42.8935661315918,19.17766571044922 C 43.202606201171875,18.838132858276367 43.51164245605469,18.49860191345215 43.820682525634766,18.159069061279297 C 40.26408004760742,14.921892166137695 36.70747756958008,11.68471622467041 33.15087127685547,8.447540283203125" fill="rgb(255,238,154)" opacity="1.0" stroke="rgb(255,238,154)" /><path d="M-0.6886711120605469,22.026498794555664 C -0.22955602407455444,22.026498794555664 0.2295590043067932,22.026498794555664 0.6886740922927856,22.026498794555664 C 0.6886740922927856,30.47057342529297 0.6886740922927856,38.91464614868164 0.6886740922927856,47.35872268676758 C 0.2295590043067932,47.35872268676758 -0.22955602407455444,47.35872268676758 -0.6886711120605469,47.35872268676758 C -0.6886711120605469,38.91464614868164 -0.6886711120605469,30.47057342529297 -0.6886711120605469,22.026498794555664" fill="rgb(255,238,154)" opacity="1.0" stroke="rgb(255,238,154)" /><path d="M-11.50864028930664,19.8035888671875 C -11.069707870483398,19.938220977783203 -10.630776405334473,20.072851181030273 -10.19184398651123,20.207483291625977 C -12.66798210144043,28.28034782409668 -15.144120216369629,36.35321044921875 -17.620258331298828,44.42607498168945 C -18.059188842773438,44.29144287109375 -18.49812126159668,44.15681457519531 -18.937053680419922,44.02218246459961 C -16.460914611816406,35.949317932128906 -13.984777450561523,27.876455307006836 -11.50864028930664,19.8035888671875" fill="rgb(255,238,154)" opacity="1.0" stroke="rgb(255,238,154)" /><path d="M-24.052003860473633,14.053210258483887 C -23.663272857666016,14.297491073608398 -23.274538040161133,14.54177188873291 -22.885805130004883,14.786052703857422 C -26.573211669921875,20.653963088989258 -30.2606201171875,26.521869659423828 -33.94802474975586,32.3897819519043 C -34.33675765991211,32.14550018310547 -34.72549057006836,31.901220321655273 -35.11422348022461,31.656938552856445 C -31.426816940307617,25.78902816772461 -27.739412307739258,19.92112159729004 -24.052003860473633,14.053210258483887" fill="rgb(255,238,154)" opacity="1.0" stroke="rgb(255,238,154)" /><path d="M-33.15089797973633,8.447540283203125 C -32.84185791015625,8.787071228027344 -32.53282165527344,9.126604080200195 -32.22378158569336,9.466135025024414 C -35.7803840637207,12.703311920166016 -39.33698654174805,15.940486907958984 -42.893592834472656,19.17766571044922 C -43.20262908935547,18.838132858276367 -43.51166915893555,18.49860191345215 -43.82070541381836,18.159069061279297 C -40.264102935791016,14.921892166137695 -36.70750045776367,11.68471622467041 -33.15089797973633,8.447540283203125" fill="rgb(255,238,154)" opacity="1.0" stroke="rgb(255,238,154)" /></g></defs><rect fill="rgb(40,40,40)" height="100%" opacity="0.800000011920929" width="100%" x="-1412.5" y="-1977.5" /><use height="100" transform="rotate(180,-1200.0,2400.0)" width="100" x="-1200.0" xlink:href="#logo_1" y="2400.0" /><use height="100" transform="rotate(180,-800.0,2400.0)" width="100" x="-800.0" xlink:href="#logo_1" y="2400.0" /><use height="100" transform="rotate(180,-400.0,2400.0)" width="100" x="-400.0" xlink:href="#logo_1" y="2400.0" /><use height="100" transform="rotate(180,0.0,2400.0)" width="100" x="0.0" xlink:href="#logo_1" y="2400.0" /><use height="100" transform="rotate(180,400.0,2400.0)" width="100" x="400.0" xlink:href="#logo_1" y="2400.0" /><use height="100" transform="rotate(180,800.0,2400.0)" width="100" x="800.0" xlink:href="#logo_1" y="2400.0" /><use height="100" transform="rotate(180,1200.0,2400.0)" width="100" x="1200.0" xlink:href="#logo_1" y="2400.0" /><use height="100" width="100" x="-1400.0" xlink:href="#logo_2" y="2520.0" /><use height="100" width="100" x="-1000.0" xlink:href="#logo_2" y="2520.0" /><use height="100" width="100" x="-600.0" xlink:href="#logo_2" y="2520.0" /><use height="100" width="100" x="-200.0" xlink:href="#logo_2" y="2520.0" /><use height="100" width="100" x="200.0" xlink:href="#logo_2" y="2520.0" /><use height="100" width="100" x="600.0" xlink:href="#logo_2" y="2520.0" /><use height="100" width="100" x="1000.0" xlink:href="#logo_2" y="2520.0" /><use height="100" width="100" x="1400.0" xlink:href="#logo_2" y="2520.0" /><use height="100" transform="rotate(180,-1200.0,1800.0)" width="100" x="-1200.0" xlink:href="#logo_1" y="1800.0" /><use height="100" transform="rotate(180,-800.0,1800.0)" width="100" x="-800.0" xlink:href="#logo_1" y="1800.0" /><use height="100" transform="rotate(180,-400.0,1800.0)" width="100" x="-400.0" xlink:href="#logo_1" y="1800.0" /><use height="100" transform="rotate(180,0.0,1800.0)" width="100" x="0.0" xlink:href="#logo_1" y="1800.0" /><use height="100" transform="rotate(180,400.0,1800.0)" width="100" x="400.0" xlink:href="#logo_1" y="1800.0" /><use height="100" transform="rotate(180,800.0,1800.0)" width="100" x="800.0" xlink:href="#logo_1" y="1800.0" /><use height="100" transform="rotate(180,1200.0,1800.0)" width="100" x="1200.0" xlink:href="#logo_1" y="1800.0" /><use height="100" width="100" x="-1400.0" xlink:href="#logo_2" y="1920.0" /><use height="100" width="100" x="-1000.0" xlink:href="#logo_2" y="1920.0" /><use height="100" width="100" x="-600.0" xlink:href="#logo_2" y="1920.0" /><use height="100" width="100" x="-200.0" xlink:href="#logo_2" y="1920.0" /><use height="100" width="100" x="200.0" xlink:href="#logo_2" y="1920.0" /><use height="100" width="100" x="600.0" xlink:href="#logo_2" y="1920.0" /><use height="100" width="100" x="1000.0" xlink:href="#logo_2" y="1920.0" /><use height="100" width="100" x="1400.0" xlink:href="#logo_2" y="1920.0" /><use height="100" transform="rotate(180,-1200.0,1200.0)" width="100" x="-1200.0" xlink:href="#logo_1" y="1200.0" /><use height="100" transform="rotate(180,-800.0,1200.0)" width="100" x="-800.0" xlink:href="#logo_1" y="1200.0" /><use height="100" transform="rotate(180,-400.0,1200.0)" width="100" x="-400.0" xlink:href="#logo_1" y="1200.0" /><use height="100" transform="rotate(180,0.0,1200.0)" width="100" x="0.0" xlink:href="#logo_1" y="1200.0" /><use height="100" transform="rotate(180,400.0,1200.0)" width="100" x="400.0" xlink:href="#logo_1" y="1200.0" /><use height="100" transform="rotate(180,800.0,1200.0)" width="100" x="800.0" xlink:href="#logo_1" y="1200.0" /><use height="100" transform="rotate(180,1200.0,1200.0)" width="100" x="1200.0" xlink:href="#logo_1" y="1200.0" /><use height="100" width="100" x="-1400.0" xlink:href="#logo_2" y="1320.0" /><use height="100" width="100" x="-1000.0" xlink:href="#logo_2" y="1320.0" /><use height="100" width="100" x="-600.0" xlink:href="#logo_2" y="1320.0" /><use height="100" width="100" x="-200.0" xlink:href="#logo_2" y="1320.0" /><use height="100" width="100" x="200.0" xlink:href="#logo_2" y="1320.0" /><use height="100" width="100" x="600.0" xlink:href="#logo_2" y="1320.0" /><use height="100" width="100" x="1000.0" xlink:href="#logo_2" y="1320.0" /><use height="100" width="100" x="1400.0" xlink:href="#logo_2" y="1320.0" /><use height="100" transform="rotate(180,-1200.0,600.0)" width="100" x="-1200.0" xlink:href="#logo_1" y="600.0" /><use height="100" transform="rotate(180,-800.0,600.0)" width="100" x="-800.0" xlink:href="#logo_1" y="600.0" /><use height="100" transform="rotate(180,-400.0,600.0)" width="100" x="-400.0" xlink:href="#logo_1" y="600.0" /><use height="100" transform="rotate(180,0.0,600.0)" width="100" x="0.0" xlink:href="#logo_1" y="600.0" /><use height="100" transform="rotate(180,400.0,600.0)" width="100" x="400.0" xlink:href="#logo_1" y="600.0" /><use height="100" transform="rotate(180,800.0,600.0)" width="100" x="800.0" xlink:href="#logo_1" y="600.0" /><use height="100" transform="rotate(180,1200.0,600.0)" width="100" x="1200.0" xlink:href="#logo_1" y="600.0" /><use height="100" width="100" x="-1400.0" xlink:href="#logo_2" y="720.0" /><use height="100" width="100" x="-1000.0" xlink:href="#logo_2" y="720.0" /><use height="100" width="100" x="-600.0" xlink:href="#logo_2" y="720.0" /><use height="100" width="100" x="-200.0" xlink:href="#logo_2" y="720.0" /><use height="100" width="100" x="200.0" xlink:href="#logo_2" y="720.0" /><use height="100" width="100" x="600.0" xlink:href="#logo_2" y="720.0" /><use height="100" width="100" x="1000.0" xlink:href="#logo_2" y="720.0" /><use height="100" width="100" x="1400.0" xlink:href="#logo_2" y="720.0" /><use height="100" transform="rotate(180,-1200.0,-0.0)" width="100" x="-1200.0" xlink:href="#logo_1" y="-0.0" /><use height="100" transform="rotate(180,-800.0,-0.0)" width="100" x="-800.0" xlink:href="#logo_1" y="-0.0" /><use height="100" transform="rotate(180,-400.0,-0.0)" width="100" x="-400.0" xlink:href="#logo_1" y="-0.0" /><use height="100" transform="rotate(180,0.0,-0.0)" width="100" x="0.0" xlink:href="#logo_1" y="-0.0" /><use height="100" transform="rotate(180,400.0,-0.0)" width="100" x="400.0" xlink:href="#logo_1" y="-0.0" /><use height="100" transform="rotate(180,800.0,-0.0)" width="100" x="800.0" xlink:href="#logo_1" y="-0.0" /><use height="100" transform="rotate(180,1200.0,-0.0)" width="100" x="1200.0" xlink:href="#logo_1" y="-0.0" /><use height="100" width="100" x="-1400.0" xlink:href="#logo_2" y="120.0" /><use height="100" width="100" x="-1000.0" xlink:href="#logo_2" y="120.0" /><use height="100" width="100" x="-600.0" xlink:href="#logo_2" y="120.0" /><use height="100" width="100" x="-200.0" xlink:href="#logo_2" y="120.0" /><use height="100" width="100" x="200.0" xlink:href="#logo_2" y="120.0" /><use height="100" width="100" x="600.0" xlink:href="#logo_2" y="120.0" /><use height="100" width="100" x="1000.0" xlink:href="#logo_2" y="120.0" /><use height="100" width="100" x="1400.0" xlink:href="#logo_2" y="120.0" /><use height="100" transform="rotate(180,-1200.0,-600.0)" width="100" x="-1200.0" xlink:href="#logo_1" y="-600.0" /><use height="100" transform="rotate(180,-800.0,-600.0)" width="100" x="-800.0" xlink:href="#logo_1" y="-600.0" /><use height="100" transform="rotate(180,-400.0,-600.0)" width="100" x="-400.0" xlink:href="#logo_1" y="-600.0" /><use height="100" transform="rotate(180,0.0,-600.0)" width="100" x="0.0" xlink:href="#logo_1" y="-600.0" /><use height="100" transform="rotate(180,400.0,-600.0)" width="100" x="400.0" xlink:href="#logo_1" y="-600.0" /><use height="100" transform="rotate(180,800.0,-600.0)" width="100" x="800.0" xlink:href="#logo_1" y="-600.0" /><use height="100" transform="rotate(180,1200.0,-600.0)" width="100" x="1200.0" xlink:href="#logo_1" y="-600.0" /><use height="100" width="100" x="-1400.0" xlink:href="#logo_2" y="-480.0" /><use height="100" width="100" x="-1000.0" xlink:href="#logo_2" y="-480.0" /><use height="100" width="100" x="-600.0" xlink:href="#logo_2" y="-480.0" /><use height="100" width="100" x="-200.0" xlink:href="#logo_2" y="-480.0" /><use height="100" width="100" x="200.0" xlink:href="#logo_2" y="-480.0" /><use height="100" width="100" x="600.0" xlink:href="#logo_2" y="-480.0" /><use height="100" width="100" x="1000.0" xlink:href="#logo_2" y="-480.0" /><use height="100" width="100" x="1400.0" xlink:href="#logo_2" y="-480.0" /><use height="100" transform="rotate(180,-1200.0,-1200.0)" width="100" x="-1200.0" xlink:href="#logo_1" y="-1200.0" /><use height="100" transform="rotate(180,-800.0,-1200.0)" width="100" x="-800.0" xlink:href="#logo_1" y="-1200.0" /><use height="100" transform="rotate(180,-400.0,-1200.0)" width="100" x="-400.0" xlink:href="#logo_1" y="-1200.0" /><use height="100" transform="rotate(180,0.0,-1200.0)" width="100" x="0.0" xlink:href="#logo_1" y="-1200.0" /><use height="100" transform="rotate(180,400.0,-1200.0)" width="100" x="400.0" xlink:href="#logo_1" y="-1200.0" /><use height="100" transform="rotate(180,800.0,-1200.0)" width="100" x="800.0" xlink:href="#logo_1" y="-1200.0" /><use height="100" transform="rotate(180,1200.0,-1200.0)" width="100" x="1200.0" xlink:href="#logo_1" y="-1200.0" /><use height="100" width="100" x="-1400.0" xlink:href="#logo_2" y="-1080.0" /><use height="100" width="100" x="-1000.0" xlink:href="#logo_2" y="-1080.0" /><use height="100" width="100" x="-600.0" xlink:href="#logo_2" y="-1080.0" /><use height="100" width="100" x="-200.0" xlink:href="#logo_2" y="-1080.0" /><use height="100" width="100" x="200.0" xlink:href="#logo_2" y="-1080.0" /><use height="100" width="100" x="600.0" xlink:href="#logo_2" y="-1080.0" /><use height="100" width="100" x="1000.0" xlink:href="#logo_2" y="-1080.0" /><use height="100" width="100" x="1400.0" xlink:href="#logo_2" y="-1080.0" /><use height="100" transform="rotate(180,-1200.0,-1800.0)" width="100" x="-1200.0" xlink:href="#logo_1" y="-1800.0" /><use height="100" transform="rotate(180,-800.0,-1800.0)" width="100" x="-800.0" xlink:href="#logo_1" y="-1800.0" /><use height="100" transform="rotate(180,-400.0,-1800.0)" width="100" x="-400.0" xlink:href="#logo_1" y="-1800.0" /><use height="100" transform="rotate(180,0.0,-1800.0)" width="100" x="0.0" xlink:href="#logo_1" y="-1800.0" /><use height="100" transform="rotate(180,400.0,-1800.0)" width="100" x="400.0" xlink:href="#logo_1" y="-1800.0" /><use height="100" transform="rotate(180,800.0,-1800.0)" width="100" x="800.0" xlink:href="#logo_1" y="-1800.0" /><use height="100" transform="rotate(180,1200.0,-1800.0)" width="100" x="1200.0" xlink:href="#logo_1" y="-1800.0" /><use height="100" width="100" x="-1400.0" xlink:href="#logo_2" y="-1680.0" /><use height="100" width="100" x="-1000.0" xlink:href="#logo_2" y="-1680.0" /><use height="100" width="100" x="-600.0" xlink:href="#logo_2" y="-1680.0" /><use height="100" width="100" x="-200.0" xlink:href="#logo_2" y="-1680.0" /><use height="100" width="100" x="200.0" xlink:href="#logo_2" y="-1680.0" /><use height="100" width="100" x="600.0" xlink:href="#logo_2" y="-1680.0" /><use height="100" width="100" x="1000.0" xlink:href="#logo_2" y="-1680.0" /><use height="100" width="100" x="1400.0" xlink:href="#logo_2" y="-1680.0" /></svg>