<?xml version="1.0" encoding="utf-8" ?>
<svg baseProfile="full" height="3955" version="1.1" viewBox="-1412.5,-1977.5,2825,3955" width="2825" xmlns="http://www.w3.org/2000/svg" xmlns:ev="http://www.w3.org/2001/xml-events" xmlns:xlink="http://www.w3.org/1999/xlink"><defs><g id="Group"><path d="M108.66007232666016,17.461551666259766 C 116.87688446044922,19.322242736816406 123.78009796142578,23.979629516601562 131.02230834960938,24.31485366821289 C 123.2716064453125,27.446767807006836 114.92766571044922,30.282068252563477 105.86337280273438,29.13419532775879 C 106.79560089111328,25.24331283569336 107.72784423828125,21.352434158325195 108.66007232666016,17.461551666259766" fill="rgb(255,255,255)" opacity="1.0" stroke="rgb(255,255,255)" /><path d="M2.511441707611084,33.65123748779297 C 3.5231449604034424,53.388980865478516 -0.5562437772750854,83.23881530761719 -4.673455238342285,83.76139831542969 C -8.368393898010254,84.23038482666016 -16.2645206451416,60.21852493286133 -17.12273597717285,43.959754943847656 C -18.15827751159668,24.34153938293457 -19.90508270263672,-3.3308632373809814 -7.240562438964844,-5.380390644073486 C 4.6012372970581055,-7.2967753410339355 1.7074083089828491,17.965009689331055 2.511441707611084,33.65123748779297" fill="rgb(208,247,255)" opacity="1.0" stroke="rgb(208,247,255)" /><path d="M-31.360410690307617,18.769969940185547 C -44.88556671142578,35.160430908203125 -72.9816665649414,52.05035400390625 -77.04788970947266,48.35623550415039 C -80.69708251953125,45.04099655151367 -64.83773803710938,19.33036231994629 -51.030723571777344,5.417783737182617 C -40.25289535522461,-5.4424567222595215 -27.45346450805664,-23.44322967529297 -17.668376922607422,-15.14608383178711 C -8.518954277038574,-7.387941837310791 -22.271961212158203,7.756133556365967 -31.360410690307617,18.769969940185547" fill="rgb(208,247,255)" opacity="1.0" stroke="rgb(208,247,255)" /><path d="M23.399267196655273,-88.53215026855469 C 29.811250686645508,-110.91061401367188 45.414405822753906,-143.08065795898438 50.68968963623047,-141.54701232910156 C 55.42394256591797,-140.170654296875 52.217620849609375,-107.53692626953125 47.41903305053711,-86.58270263671875 C 40.49346923828125,-56.340511322021484 29.581466674804688,-9.948598861694336 17.14701271057129,-13.106891632080078 C 5.520331382751465,-16.060012817382812 15.260560035705566,-60.127235412597656 23.399267196655273,-88.53215026855469" fill="rgb(208,247,255)" opacity="1.0" stroke="rgb(208,247,255)" /><path d="M-29.74730682373047,-92.37593078613281 C -37.013919830322266,-119.52547454833984 -40.84973907470703,-162.52166748046875 -34.435997009277344,-164.21168518066406 C -28.680049896240234,-165.72837829589844 -11.723250389099121,-129.95460510253906 -3.6713948249816895,-105.2818374633789 C 7.9494476318359375,-69.67285919189453 25.477733612060547,-14.869231224060059 10.643577575683594,-10.412850379943848 C -3.226912021636963,-6.245968341827393 -20.523820877075195,-57.91511535644531 -29.74730682373047,-92.37593078613281" fill="rgb(208,247,255)" opacity="1.0" stroke="rgb(208,247,255)" /><path d="M5.410637855529785,6.475893974304199 C 8.843996047973633,-17.648723602294922 32.8472900390625,-30.040613174438477 57.160919189453125,-28.41815948486328 C 87.25100708007812,-26.41023826599121 114.31293487548828,10.55455207824707 114.90039825439453,22.89278221130371 C 115.52874755859375,36.089786529541016 79.94816589355469,66.29729461669922 51.2880744934082,61.521183013916016 C 23.692914962768555,56.922542572021484 1.468920111656189,34.172523498535156 5.410637855529785,6.475893974304199" fill="rgb(255,234,117)" opacity="1.0" stroke="rgb(255,234,117)" /><path d="M15.789692878723145,38.90782928466797 C 15.789692878723145,35.916465759277344 21.39639663696289,32.328460693359375 23.709753036499023,30.431976318359375 C 24.82717514038086,29.51591682434082 26.338611602783203,24.656742095947266 27.18346405029297,23.484556198120117 C 28.40416145324707,21.790908813476562 32.26172637939453,17.17951202392578 32.741397857666016,15.147652626037598 C 33.54813766479492,11.730348587036133 41.54329299926758,10.51657485961914 38.29933547973633,9.172868728637695 C 33.56899642944336,7.21347713470459 37.604591369628906,-2.102954626083374 37.604591369628906,-7.223043441772461 C 37.604591369628906,-11.927840232849121 47.80657958984375,-13.000022888183594 43.16252899169922,-13.753616333007812 C 40.3271598815918,-14.213713645935059 36.06239318847656,-15.98909854888916 38.71617889404297,-17.088382720947266 C 40.82026672363281,-17.959962844848633 44.84978485107422,-19.273698806762695 42.74568557739258,-20.145246505737305 C 40.582969665527344,-21.041072845458984 35.52036666870117,-17.80434226989746 35.52036666870117,-20.145246505737305 C 35.52036666870117,-25.667558670043945 45.28237533569336,-26.5368709564209 50.8046875,-26.5368709564209 C 52.814109802246094,-26.5368709564209 48.160709381103516,-23.60471534729004 48.442569732666016,-22.924217224121094 C 48.60222625732422,-22.53874969482422 49.724491119384766,-22.52808380126953 50.109954833984375,-22.368417739868164 C 51.00975036621094,-21.995710372924805 49.413917541503906,-18.338912963867188 50.387847900390625,-18.338912963867188 C 50.89719772338867,-18.338912963867188 52.93537139892578,-16.810483932495117 53.44471740722656,-16.810483932495117 C 52.8107795715332,-16.660831451416016 50.882843017578125,-14.459065437316895 50.2489013671875,-14.309412956237793 C 52.673728942871094,-12.810782432556152 56.842201232910156,-10.111114501953125 54.41734313964844,-8.612525939941406 C 52.716957092285156,-7.561668395996094 52.64715576171875,-6.514549732208252 54.13945007324219,-4.444073677062988 C 56.1820068359375,-1.6101434230804443 54.34349060058594,1.7007373571395874 50.943634033203125,2.5033459663391113 C 49.08026123046875,2.943234443664551 55.58662414550781,8.61081314086914 55.112091064453125,11.534996032714844 C 54.646690368652344,14.402894973754883 50.09744644165039,13.480270385742188 47.19203186035156,13.480270385742188 C 42.93094253540039,13.480270385742188 43.27956771850586,14.700445175170898 47.74782943725586,15.42555046081543 C 50.987632751464844,15.951301574707031 48.244285583496094,17.789104461669922 48.99836730957031,20.98348617553711 C 49.349517822265625,22.471004486083984 44.52690124511719,25.99361228942871 44.135169982910156,27.65300941467285 C 43.78659439086914,29.129587173461914 44.45310974121094,31.301746368408203 43.16252899169922,32.09935760498047 C 40.303260803222656,33.866458892822266 34.76803207397461,29.830562591552734 36.354061126708984,32.79410171508789 C 37.26358413696289,34.49357986450195 39.68881607055664,33.8902473449707 39.68881607055664,37.51834487915039 C 39.68881607055664,38.12720489501953 36.49300765991211,37.32633590698242 36.49300765991211,37.9351921081543 C 36.49300765991211,41.9013786315918 32.3800048828125,42.922142028808594 29.406639099121094,40.29731750488281 C 26.72091293334961,37.92640686035156 25.256698608398438,39.90543746948242 26.627670288085938,43.215232849121094 C 26.77763557434082,43.57727813720703 28.56192970275879,45.21531295776367 28.711894989013672,45.577354431152344 C 30.009695053100586,48.710506439208984 27.22113609313965,51.941165924072266 25.238183975219727,49.19001388549805 C 24.121623992919922,47.640899658203125 19.581893920898438,43.23552703857422 17.873920440673828,42.38153839111328 C 16.16594886779785,41.527549743652344 15.789692878723145,41.899192810058594 15.789692878723145,38.90782928466797" fill="rgb(75,75,75)" opacity="0.25" stroke="rgb(75,75,75)" /><path d="M32.463497161865234,53.497413635253906 C 32.463497161865234,52.92102813720703 40.4909553527832,52.85248947143555 42.4677848815918,52.38582229614258 C 43.22341537475586,52.20744323730469 42.386131286621094,50.16265106201172 43.16252899169922,50.16265106201172 C 47.016578674316406,50.16265106201172 50.85666275024414,37.60374450683594 54.41734313964844,36.12886047363281 C 58.08769226074219,34.608551025390625 59.95676803588867,30.55239486694336 61.64266586303711,32.23830795288086 C 65.13377380371094,35.72944641113281 66.64481353759766,29.39438819885254 66.64481353759766,24.457191467285156 C 66.64481353759766,23.14392852783203 63.402774810791016,23.140851974487305 62.337406158447266,22.372966766357422 C 61.798683166503906,21.984670639038086 61.978294372558594,18.87549591064453 61.36476516723633,18.621360778808594 C 62.241004943847656,18.479164123535156 64.93488311767578,15.289844512939453 65.81111907958984,15.147647857666016 C 62.67335510253906,15.147647857666016 58.91743469238281,13.555863380432129 61.920562744140625,12.646577835083008 C 65.35628509521484,11.606310844421387 70.24171447753906,12.90621566772461 68.86798858642578,9.58971118927002 C 68.31143188476562,8.246055603027344 65.42696380615234,7.411998748779297 66.22795867919922,6.115997791290283 C 69.52318572998047,0.7843701243400574 73.27793884277344,-4.350290298461914 75.67646026611328,-10.140962600708008 C 76.93699645996094,-13.18421745300293 81.38694763183594,-15.986795425415039 84.4301986694336,-14.726265907287598 C 88.45745849609375,-13.058157920837402 92.95771026611328,-6.528308868408203 88.5986557006836,-6.528308868408203 C 85.38310241699219,-6.528308868408203 87.93528747558594,1.0400867462158203 90.54393005371094,2.9201879501342773 C 90.2956314086914,3.2014553546905518 90.51433563232422,5.556839942932129 90.26603698730469,5.838107109069824 C 88.77626037597656,7.525672912597656 82.44634246826172,11.289422035217285 81.92913055419922,13.480266571044922 C 81.33348083496094,16.003368377685547 76.62511444091797,17.554950714111328 74.56487274169922,15.981334686279297 C 76.11817169189453,17.100887298583984 77.5645751953125,18.598281860351562 79.42807006835938,19.03820037841797 C 79.83907318115234,19.13522720336914 80.40654754638672,21.025405883789062 80.81755065917969,21.122432708740234 C 80.21414184570312,21.122432708740234 77.53040313720703,21.817171096801758 76.92699432373047,21.817171096801758 C 77.6590805053711,23.584583282470703 77.9996566772461,26.781963348388672 76.23225402832031,27.514055252075195 C 74.30460357666016,28.312522888183594 68.41590881347656,26.97588348388672 67.6174545288086,28.903539657592773 C 64.97834014892578,35.274986267089844 66.52607727050781,38.629093170166016 72.89749145507812,35.98991012573242 C 72.37797546386719,36.310977935791016 73.25457763671875,38.96817398071289 72.89749145507812,39.463623046875 C 72.26007843017578,40.34801483154297 70.7088394165039,39.74116516113281 69.70167541503906,40.158363342285156 C 73.862548828125,50.203609466552734 64.91693878173828,51.98827362060547 55.66788101196289,46.2720947265625 C 55.19794464111328,45.981658935546875 52.803062438964844,46.423580169677734 52.333126068115234,46.13314437866211 C 52.708675384521484,46.36524963378906 52.630775451660156,48.13711929321289 52.888919830322266,48.495269775390625 C 53.53187942504883,49.3873176574707 56.542964935302734,49.91001510620117 57.613162994384766,50.16265106201172 C 59.6275634765625,50.63818359375 63.712432861328125,54.886898040771484 61.64266586303711,54.886898040771484 C 59.135597229003906,54.886898040771484 56.15787124633789,55.017669677734375 54.27839660644531,53.358463287353516 C 53.313655853271484,52.50678634643555 52.23052215576172,51.413185119628906 50.943634033203125,51.413185119628906 C 45.032405853271484,51.413185119628906 54.24729919433594,57.499385833740234 60.11423110961914,58.22166061401367 C 54.156494140625,60.68940734863281 46.56816864013672,59.994041442871094 40.8004035949707,57.110069274902344 C 35.03264236450195,54.22609329223633 32.463497161865234,54.07379913330078 32.463497161865234,53.497413635253906" fill="rgb(75,75,75)" opacity="0.25" stroke="rgb(75,75,75)" /><path d="M72.34169006347656,58.91640090942383 C 71.33724975585938,57.911964416503906 74.22514343261719,58.070518493652344 75.53750610351562,57.526920318603516 C 76.1712646484375,57.264408111572266 75.73743438720703,53.065185546875 76.37120056152344,52.80267333984375 C 78.29167175292969,52.00718688964844 81.79483795166016,54.446903228759766 82.20702362060547,54.19215393066406 C 83.9460220336914,53.11738204956055 77.76067352294922,52.068023681640625 77.76067352294922,50.023704528808594 C 77.76067352294922,48.45228958129883 81.44998931884766,49.79136657714844 82.90177917480469,49.19001007080078 C 83.18829345703125,49.07133102416992 83.0548095703125,47.407772064208984 83.31861114501953,47.24473190307617 C 84.74678802490234,46.36207962036133 87.00151062011719,47.33912658691406 87.9039077758789,45.1605110168457 C 87.19918823242188,44.86860656738281 86.52440643310547,41.28396224975586 85.8196792602539,40.99205780029297 C 86.25796508789062,41.20066452026367 88.57721710205078,40.088706970214844 89.01549530029297,40.29731750488281 C 90.81552124023438,41.15407180786133 93.1158218383789,44.640159606933594 93.87869262695312,42.79838180541992 C 94.6439437866211,40.95085144042969 90.34471130371094,39.08048629760742 89.29339599609375,37.379398345947266 C 88.4983901977539,36.09303665161133 92.21131134033203,35.41789245605469 92.21131134033203,33.90568161010742 C 92.50018310546875,34.30646896362305 94.97930908203125,35.033329010009766 95.26817321777344,35.43411636352539 C 95.67301940917969,35.995819091796875 94.72782897949219,38.768882751464844 97.21345520019531,38.768882751464844 C 97.34733581542969,37.94388198852539 97.36912536621094,35.78385925292969 98.04714965820312,35.295166015625 C 99.69782257080078,34.105430603027344 102.83219146728516,35.695308685302734 104.02192687988281,34.04463195800781 C 106.02681732177734,31.262990951538086 99.07942962646484,29.60094451904297 97.07450866699219,26.819320678710938 C 95.7671890258789,25.00555419921875 98.20258331298828,19.74943733215332 97.76924896240234,19.316102981567383 C 95.82579040527344,17.372655868530273 101.1791000366211,5.601489543914795 99.43663024902344,3.4759819507598877 C 98.0005874633789,1.724258542060852 96.5835952758789,-4.160725116729736 98.67627716064453,-3.2938952445983887 C 100.57608795166016,-2.506958484649658 107.58734130859375,4.2578325271606445 109.5528335571289,9.003042221069336 C 112.3530044555664,15.763376235961914 111.42478942871094,25.184099197387695 110.189697265625,33.99831771850586 C 105.30206298828125,39.93836212158203 100.01994323730469,44.88440704345703 93.21096801757812,49.79212188720703 C 90.3631591796875,51.84474182128906 81.68797302246094,57.2490234375 78.17752075195312,57.2490234375 C 74.66706848144531,57.2490234375 73.34613037109375,59.920841217041016 72.34169006347656,58.91640090942383" fill="rgb(75,75,75)" opacity="0.25" stroke="rgb(75,75,75)" /><path d="M-24.024187088012695,5.083066463470459 C -35.89558029174805,17.142398834228516 -38.922969818115234,40.69157028198242 -34.054283142089844,44.053409576416016 C -23.867734909057617,51.087249755859375 -5.524654388427734,30.831993103027344 5.785257816314697,21.068330764770508 C 6.208250045776367,23.882198333740234 0.06194945052266121,25.658140182495117 -0.011581205762922764,29.72486114501953 C -0.08345061540603638,33.699703216552734 1.4537179470062256,37.56986999511719 5.344722747802734,38.38511276245117 C 10.870492935180664,39.542869567871094 16.21641731262207,35.263458251953125 17.248598098754883,30.174190521240234 C 18.74456214904785,22.798194885253906 14.028312683105469,14.190444946289062 8.710428237915039,10.038731575012207 C 2.1598081588745117,10.538305282592773 -2.069648265838623,13.12480640411377 -6.764870643615723,20.073043823242188 C -11.46009349822998,27.021282196044922 -21.946252822875977,33.863555908203125 -24.76683807373047,32.63423538208008 C -28.499393463134766,31.0074405670166 -20.165815353393555,16.88767433166504 -14.819658279418945,9.941329002380371 C -17.887834548950195,8.321907997131348 -20.956008911132812,6.702487945556641 -24.024187088012695,5.083066463470459" fill="rgb(168,140,64)" opacity="1.0" stroke="rgb(168,140,64)" /><path d="M-13.72711181640625,-25.04756736755371 C -15.057013511657715,-43.08671569824219 -1.5896271467208862,-69.30768585205078 1.775303840637207,-67.93585968017578 C 5.279569625854492,-66.5072250366211 12.16982364654541,-41.2227897644043 15.301342010498047,-25.00599479675293 C 14.642749786376953,-34.878028869628906 21.70067596435547,-41.95219421386719 29.533687591552734,-40.00299835205078 C 36.34126663208008,-38.3089714050293 35.95204544067383,-27.63249969482422 34.35184097290039,-22.69232177734375 C 32.032623291015625,-15.532402992248535 23.4688720703125,-7.925164222717285 18.821250915527344,-11.27199935913086 C 6.3255438804626465,-20.270376205444336 1.8506239652633667,-35.474708557128906 -0.7552703619003296,-50.489288330078125 C -2.134221315383911,-41.46428680419922 -3.5131723880767822,-32.43928909301758 -4.892123699188232,-23.41428565979004 C -7.8371195793151855,-23.95871353149414 -10.782115936279297,-24.50313949584961 -13.72711181640625,-25.04756736755371" fill="rgb(168,140,64)" opacity="1.0" stroke="rgb(168,140,64)" /><path d="M18.276641845703125,143.2610626220703 C 12.371223449707031,141.4658660888672 4.196194648742676,132.7969970703125 7.118963718414307,128.59181213378906 C 13.136491775512695,119.93399047851562 36.12269592285156,118.72547149658203 40.34090042114258,113.97518920898438 C 44.78417205810547,108.97144317626953 24.988122940063477,57.25106430053711 15.206583023071289,28.52288246154785 C 16.444427490234375,27.619077682495117 17.68227195739746,26.71527099609375 18.920116424560547,25.811464309692383 C 29.31375503540039,53.71269226074219 42.02177047729492,81.71862030029297 50.10102844238281,109.51513671875 C 60.15275192260742,106.43016815185547 66.91153717041016,118.19225311279297 63.83620834350586,123.56603240966797 C 57.5565071105957,134.5390625 35.911170959472656,148.621826171875 18.276641845703125,143.2610626220703" fill="rgb(168,140,64)" opacity="1.0" stroke="rgb(168,140,64)" /><path d="M50.92233657836914,-33.63087844848633 C 51.379791259765625,-37.23580551147461 56.12284851074219,-41.411373138427734 59.229618072509766,-39.52650451660156 C 67.48377990722656,-34.51871871948242 87.87843322753906,-17.186922073364258 87.6151351928711,1.7118473052978516 C 87.52888488769531,7.902778148651123 83.70873260498047,10.940526008605957 77.80873107910156,9.062987327575684 C 65.76116943359375,5.229130744934082 49.366641998291016,-21.37139892578125 50.92233657836914,-33.63087844848633" fill="rgb(168,140,64)" opacity="1.0" stroke="rgb(168,140,64)" /><path d="M28.825077056884766,-1.0169799327850342 C 28.8059024810791,-2.455007791519165 28.786731719970703,-3.8930351734161377 28.767559051513672,-5.331063270568848 C 39.05826187133789,-2.116851806640625 51.349952697753906,-3.4931752681732178 61.84663772583008,-7.6061625480651855 C 62.916927337646484,-5.823256492614746 63.98721694946289,-4.040349960327148 65.05750274658203,-2.25744366645813 C 54.127662658691406,1.5695183277130127 40.108036041259766,4.601964950561523 28.825077056884766,-1.0169799327850342" fill="rgb(168,140,64)" opacity="1.0" stroke="rgb(168,140,64)" /><path d="M-24.743206024169922,-11.743743896484375 C -21.1025447845459,-21.459598541259766 -15.817484855651855,-31.527042388916016 -6.01588249206543,-30.60027503967285 C 9.823248863220215,-29.102642059326172 19.122102737426758,-3.0424251556396484 16.029943466186523,2.8891661167144775 C 12.722558975219727,9.233613967895508 -13.978658676147461,18.119821548461914 -23.1664981842041,12.5084228515625 C -29.586448669433594,8.58749008178711 -28.072542190551758,-2.8587217330932617 -24.743206024169922,-11.743743896484375" fill="rgb(130,100,41)" opacity="1.0" stroke="rgb(130,100,41)" /><path d="M-112.49545288085938,-43.56429672241211 C -102.74986267089844,-41.6956901550293 -85.72045135498047,-35.31314468383789 -75.5867919921875,-30.546207427978516 C -75.96228790283203,-29.627946853637695 -76.33778381347656,-28.709686279296875 -76.7132797241211,-27.791425704956055 C -89.21221923828125,-33.70854187011719 -108.51306915283203,-41.036983489990234 -119.51345825195312,-39.00837707519531 C -111.1631088256836,-32.41767501831055 -102.87688446044922,-9.782464027404785 -106.8215560913086,-7.230258941650391 C -113.230712890625,-3.083528995513916 -121.91788482666016,-16.48304557800293 -125.71372985839844,-22.361181259155273 C -129.86705017089844,-28.792879104614258 -133.50308227539062,-38.81624221801758 -131.62869262695312,-42.51839828491211 C -130.69383239746094,-44.36487579345703 -118.55168151855469,-44.72550964355469 -112.49545288085938,-43.56429672241211" fill="rgb(255,234,117)" opacity="1.0" stroke="rgb(255,234,117)" /><path d="M-87.4708023071289,-70.58940887451172 C -80.5691146850586,-63.45958709716797 -71.81356048583984,-56.50632095336914 -61.998653411865234,-50.78896713256836 C -62.48667526245117,-49.871551513671875 -62.97470474243164,-48.954132080078125 -63.46272659301758,-48.036712646484375 C -74.5301513671875,-54.59102249145508 -87.4570541381836,-63.932376861572266 -94.01660919189453,-69.8183364868164 C -100.54939270019531,-75.68026733398438 -104.08306121826172,-88.58578491210938 -101.27716064453125,-89.86193084716797 C -94.32843780517578,-93.02229309082031 -87.99311065673828,-88.43901824951172 -82.3407974243164,-84.3144302368164 C -76.15619659423828,-79.8014144897461 -69.8653335571289,-78.73091125488281 -68.3853759765625,-76.75188446044922 C -67.12004852294922,-75.05986022949219 -68.38715362548828,-72.85398864746094 -71.96183776855469,-71.31414031982422 C -76.71489715576172,-69.26667785644531 -86.604736328125,-71.108154296875 -87.4708023071289,-70.58940887451172" fill="rgb(255,234,117)" opacity="1.0" stroke="rgb(255,234,117)" /><path d="M-73.91212463378906,-37.70112609863281 C -63.01017761230469,-53.45283126831055 -47.555564880371094,-70.8123550415039 -26.628019332885742,-58.02210998535156 C -13.052848815917969,-49.72540283203125 -18.709993362426758,-15.750814437866211 -23.070880889892578,-8.972882270812988 C -36.69498825073242,12.202463150024414 -47.793155670166016,24.281984329223633 -71.05402374267578,11.812806129455566 C -84.2728042602539,4.7267680168151855 -84.9316177368164,-21.779586791992188 -73.91212463378906,-37.70112609863281" fill="rgb(255,234,117)" opacity="1.0" stroke="rgb(255,234,117)" /><path d="M-56.1522331237793,-3.1985409259796143 C -41.55735397338867,-4.610352993011475 -41.70515060424805,-17.675050735473633 -41.67638397216797,-29.239002227783203 C -30.87752342224121,-28.73941421508789 -24.27583122253418,-24.09198570251465 -23.051395416259766,-15.02798843383789 C -21.86296272277832,-6.23049783706665 -28.34918212890625,0.414719820022583 -36.82101058959961,3.0673205852508545 C -44.39224624633789,5.437936782836914 -51.47408676147461,0.8322277069091797 -56.1522331237793,-3.1985409259796143" fill="rgb(255,255,255)" opacity="1.0" stroke="rgb(255,255,255)" /><path d="M-64.037353515625,14.671968460083008 C -71.22248077392578,15.12335205078125 -79.20820617675781,5.547982215881348 -81.78921508789062,-4.245893955230713 C -84.16851806640625,-13.274357795715332 -80.5758285522461,-26.897233963012695 -76.1448974609375,-27.485332489013672 C -66.25513458251953,-28.797962188720703 -61.6064567565918,-19.448532104492188 -58.86317443847656,-10.352560997009277 C -55.982486724853516,-0.8009892106056213 -54.78257369995117,14.09056568145752 -64.037353515625,14.671968460083008" fill="rgb(29,23,12)" opacity="1.0" stroke="rgb(29,23,12)" /><path d="M-69.78192138671875,-37.43659591674805 C -72.63646697998047,-47.575008392333984 -62.847747802734375,-54.514556884765625 -53.184757232666016,-58.705322265625 C -44.43120193481445,-62.501670837402344 -33.45099639892578,-64.87071228027344 -28.843910217285156,-56.5153694152832 C -22.72403907775879,-45.41646957397461 -31.81968116760254,-32.19254684448242 -43.640167236328125,-27.619300842285156 C -53.80772399902344,-23.68556022644043 -66.8272705078125,-26.94261932373047 -69.78192138671875,-37.43659591674805" fill="rgb(29,23,12)" opacity="1.0" stroke="rgb(29,23,12)" /><path d="M-69.9678726196289,5.656888008117676 C -81.49573516845703,5.759531497955322 -84.22032928466797,-16.813356399536133 -77.33667755126953,-22.937549591064453 C -73.34964752197266,-26.484699249267578 -67.2947006225586,-19.41176414489746 -65.30282592773438,-13.878889083862305 C -62.64673614501953,-6.500997543334961 -62.12675094604492,5.587070465087891 -69.9678726196289,5.656888008117676" fill="rgb(255,255,255)" opacity="1.0" stroke="rgb(255,255,255)" /><path d="M-68.55867767333984,-36.63613510131836 C -73.5906753540039,-50.07534408569336 -49.86697769165039,-64.02023315429688 -38.71472930908203,-58.093536376953125 C -32.255313873291016,-54.6607780456543 -34.3182487487793,-44.69303894042969 -39.33268356323242,-39.367313385009766 C -47.18852615356445,-31.023780822753906 -64.54024505615234,-25.903888702392578 -68.55867767333984,-36.63613510131836" fill="rgb(255,255,255)" opacity="1.0" stroke="rgb(255,255,255)" /></g><g id="Group.001"><path d="M35.9470100402832,-71.99732208251953 C 51.050270080566406,-87.7335433959961 79.59028625488281,-99.64493560791016 81.78858947753906,-94.96458435058594 C 82.69026184082031,-93.04486846923828 79.08809661865234,-88.5247802734375 76.98368072509766,-84.68814086914062 C 73.28931427001953,-77.95279693603516 56.5025749206543,-59.5006103515625 52.01445770263672,-54.48761749267578 C 42.905189514160156,-44.31304931640625 23.67872428894043,-35.205379486083984 10.347111701965332,-23.93267822265625 C 8.273726463317871,-25.67510414123535 6.200341701507568,-27.417526245117188 4.126956939697266,-29.15995216369629 C 11.110299110412598,-45.28312301635742 26.916820526123047,-62.58869552612305 35.9470100402832,-71.99732208251953" fill="rgb(208,247,255)" opacity="1.0" stroke="rgb(208,247,255)" /><path d="M-61.17182540893555,-61.55906677246094 C -73.6820297241211,-79.4261245727539 -77.79547119140625,-95.47333526611328 -75.97564697265625,-105.30936431884766 C -73.27295684814453,-102.6495590209961 -71.22354125976562,-100.13813018798828 -67.86758422851562,-97.32994079589844 C -61.97609329223633,-92.40010070800781 -51.99092483520508,-75.13400268554688 -47.942970275878906,-69.75930786132812 C -39.727081298828125,-58.850616455078125 -43.411624908447266,-49.20033645629883 -34.93687057495117,-33.9365119934082 C -43.68185806274414,-43.14402770996094 -53.6920166015625,-50.876407623291016 -61.17182540893555,-61.55906677246094" fill="rgb(208,247,255)" opacity="1.0" stroke="rgb(208,247,255)" /><path d="M-38.92231750488281,-65.71147155761719 C -40.19169616699219,-68.9338607788086 -42.98802185058594,-73.18016052246094 -39.822120666503906,-78.05432891845703 C -36.441429138183594,-76.28640747070312 -34.97378158569336,-73.2517318725586 -32.54961013793945,-70.85043334960938 C -34.67384719848633,-69.13744354248047 -36.79808044433594,-67.4244613647461 -38.92231750488281,-65.71147155761719" fill="rgb(208,247,255)" opacity="1.0" stroke="rgb(208,247,255)" /><path d="M-29.412302017211914,-52.44132995605469 C -29.21458625793457,-52.32270431518555 -29.012466430664062,-52.20232391357422 -28.84943199157715,-52.03927993774414 C -28.6863956451416,-51.87623977661133 -29.610015869140625,-52.55995559692383 -29.412302017211914,-52.44132995605469" fill="rgb(208,247,255)" opacity="1.0" stroke="rgb(208,247,255)" /><path d="M18.35235023498535,68.55215454101562 C -5.234305381774902,53.7440299987793 -14.001977920532227,19.13544464111328 -0.19978922605514526,-0.32761797308921814 C 14.846498489379883,-21.5450382232666 47.43507385253906,-23.31654167175293 71.08101654052734,-8.315245628356934 C 92.98070526123047,5.578202247619629 101.79309844970703,38.745880126953125 92.51438903808594,54.56196975708008 C 78.13621520996094,79.07037353515625 43.30644226074219,84.21878814697266 18.35235023498535,68.55215454101562" fill="rgb(255,234,117)" opacity="1.0" stroke="rgb(255,234,117)" /><path d="M51.39718246459961,21.915254592895508 C 52.312435150146484,22.83051872253418 51.45389175415039,23.09514808654785 50.2580451965332,23.59046173095703 C 49.586185455322266,23.868741989135742 50.134273529052734,25.062868118286133 49.855987548828125,25.734724044799805 C 49.6050910949707,26.34046745300293 48.903438568115234,26.6058349609375 48.2477912902832,26.6058349609375 C 48.644813537597656,28.287736892700195 46.97463607788086,29.903329849243164 46.97463607788086,31.63145637512207 C 46.97463607788086,32.81658935546875 45.546443939208984,32.83760452270508 44.36130905151367,32.83760452270508 C 43.299373626708984,32.83760452270508 42.65879440307617,34.16652297973633 42.3510627746582,35.18289566040039 C 42.00827407836914,36.31503677368164 38.59859848022461,39.49467849731445 38.59859848022461,40.67757797241211 C 38.59859848022461,42.32151794433594 36.493412017822266,42.17970275878906 35.58322525024414,43.089874267578125 C 35.0083122253418,43.66477966308594 34.898921966552734,44.57686233520508 34.71211624145508,45.36815643310547 C 33.206268310546875,45.36815643310547 31.093669891357422,43.192230224609375 31.093669891357422,44.69807434082031 C 31.093669891357422,46.07541275024414 30.181339263916016,48.035614013671875 28.949403762817383,48.65156173706055 C 27.71746826171875,49.26750946044922 27.249704360961914,50.125755310058594 26.604106903076172,50.125755310058594 C 25.958511352539062,50.125755310058594 23.78313636779785,50.615787506103516 23.186687469482422,50.862850189208984 C 22.449861526489258,51.168060302734375 20.1414737701416,50.72909164428711 19.83626937866211,51.46592330932617 C 19.026607513427734,53.42062759399414 14.57979679107666,54.837310791015625 12.26433277130127,53.87821960449219 C 12.12696647644043,53.82132339477539 11.65113639831543,49.465797424316406 10.991177558898926,50.125755310058594 C 10.38152027130127,50.73541259765625 10.987503051757812,52.15178680419922 10.254085540771484,52.605064392089844 C 8.265639305114746,53.83399963378906 3.499791145324707,52.568729400634766 2.6821486949920654,50.594818115234375 C 2.454545736312866,50.04534912109375 2.097560167312622,49.541194915771484 1.677026629447937,49.120635986328125 C 1.256493091583252,48.7000732421875 0.16189080476760864,42.8647346496582 -0.3835245966911316,42.319297790527344 C -0.9289399981498718,41.77386474609375 -2.3980658054351807,41.325687408447266 -1.9470512866973877,40.69993209838867 C -1.297322154045105,39.7984733581543 0.3065032958984375,41.86210250854492 1.4033619165420532,42.04010009765625 C 4.409646987915039,42.5279541015625 7.40386962890625,43.324424743652344 10.449481964111328,43.324424743652344 C 10.382081985473633,43.16170120239258 10.516880989074707,42.1469841003418 10.449481964111328,41.98426055908203 C 10.54150676727295,42.20642852783203 11.28456974029541,42.205101013183594 11.454607009887695,42.37513732910156 C 12.394030570983887,43.31456756591797 12.013008117675781,42.97776794433594 12.013008117675781,41.64921569824219 C 12.013008117675781,40.91205596923828 13.111120223999023,41.127967834472656 13.632378578186035,41.64921569824219 C 13.969741821289062,41.986572265625 13.797575950622559,42.65202713012695 14.134940147399902,42.989383697509766 C 14.480422019958496,43.33485412597656 15.418684005737305,42.96059799194336 15.530946731567383,43.43610382080078 C 16.090559005737305,45.806427001953125 19.740447998046875,45.502193450927734 22.175933837890625,45.502193450927734 C 22.673715591430664,45.502193450927734 23.37186050415039,44.14452362060547 23.795297622680664,43.88282775878906 C 24.64501190185547,43.35767364501953 25.36495590209961,42.17467498779297 25.13546371459961,41.20249557495117 C 24.93069076538086,40.33502960205078 23.646333694458008,39.72466278076172 23.851137161254883,38.857200622558594 C 23.99349594116211,38.25422668457031 27.3646183013916,36.06519317626953 28.150840759277344,36.06519317626953 C 28.746469497680664,36.06519317626953 29.342100143432617,36.06519317626953 29.937728881835938,36.06519317626953 C 30.820640563964844,36.06519317626953 31.29979133605957,37.91075897216797 32.11549758911133,37.572879791259766 C 34.21590042114258,36.702857971191406 32.785579681396484,32.252071380615234 32.785579681396484,29.978605270385742 C 32.785579681396484,28.063140869140625 36.879722595214844,28.88081932067871 38.59296417236328,28.024198532104492 C 40.30620574951172,27.16757583618164 39.359039306640625,26.356821060180664 40.04482650756836,26.013927459716797 C 40.730613708496094,25.67103385925293 39.95100784301758,22.396528244018555 40.60322570800781,21.99342918395996 C 42.33403396606445,20.92371940612793 43.23080825805664,15.776395797729492 44.00947952270508,13.896594047546387 C 44.31446075439453,13.160335540771484 45.128971099853516,11.665032386779785 44.623722076416016,11.048742294311523 C 43.724918365478516,9.952401161193848 45.53691864013672,8.072898864746094 44.902923583984375,6.804884910583496 C 44.26892852783203,5.536871433258057 44.23284149169922,4.897353172302246 44.23284149169922,4.012872695922852 C 44.23284149169922,3.128392219543457 44.285255432128906,2.2055370807647705 44.623722076416016,1.3883795738220215 C 45.46222686767578,-0.636005699634552 43.61952590942383,-2.897193193435669 42.78099822998047,-4.921568393707275 C 42.4892692565918,-5.625851631164551 41.90007400512695,-10.024664878845215 41.60835266113281,-10.728951454162598 C 41.37721252441406,-11.286980628967285 40.331809997558594,-11.176048278808594 40.10066604614258,-11.734075546264648 C 39.82942581176758,-12.388900756835938 40.099273681640625,-13.298974990844727 39.59810256958008,-13.800166130065918 C 39.0969352722168,-14.301358222961426 37.79447555541992,-14.707887649536133 37.79447555541992,-15.207338333129883 C 37.79447555541992,-15.706789016723633 37.335304260253906,-16.220090866088867 37.52644348144531,-16.681522369384766 C 38.30448913574219,-18.559831619262695 41.974884033203125,-18.004302978515625 43.62419891357422,-16.81553840637207 C 44.82968521118164,-15.946666717529297 46.63957214355469,-15.018113136291504 46.63957214355469,-13.532132148742676 C 46.63957214355469,-13.030191421508789 45.91142654418945,-12.588693618774414 46.10350799560547,-12.124958038330078 C 46.34785461425781,-11.535035133361816 48.05989074707031,-11.699223518371582 48.649818420410156,-11.454874992370605 C 49.750736236572266,-10.998872756958008 50.062747955322266,-9.264201164245605 49.78895950317383,-8.104460716247559 C 49.57736587524414,-7.208157539367676 48.79936981201172,-6.287868976593018 49.11887741088867,-5.424129486083984 C 49.47855758666992,-4.4517974853515625 52.968196868896484,-0.7374159693717957 53.206382751464844,0.2715766429901123 C 53.688865661621094,2.3154678344726562 52.097721099853516,4.7101521492004395 53.072364807128906,6.570355415344238 C 53.56922149658203,7.518655300140381 52.020545959472656,11.080163955688477 52.871341705322266,11.72999382019043 C 54.83233642578125,13.227782249450684 54.75124740600586,12.854777336120605 53.54142379760742,14.81237506866455 C 53.38911437988281,15.05882453918457 53.827754974365234,16.710193634033203 53.67544174194336,16.956640243530273 C 53.526859283447266,17.19704818725586 52.40020751953125,17.2176513671875 52.33527755737305,17.492706298828125 C 52.11772155761719,18.414281845092773 52.880130767822266,20.374061584472656 51.9332275390625,20.374061584472656 C 51.45600891113281,20.374061584472656 50.87348556518555,20.416282653808594 50.660072326660156,20.843122482299805 C 50.4466552734375,21.269962310791016 50.48192596435547,20.999990463256836 51.39718246459961,21.915254592895508" fill="rgb(75,75,75)" opacity="0.25" stroke="rgb(75,75,75)" /><path d="M-5.459099769592285,17.659460067749023 C -5.3142170906066895,16.716760635375977 -5.747506141662598,15.660447120666504 -5.845067501068115,15.247162818908691 C -5.796484470367432,15.49943733215332 -4.635609149932861,15.225666999816895 -4.494182109832764,15.440147399902344 C -4.453983306884766,15.501111030578613 -3.3527114391326904,18.346057891845703 -3.3362767696380615,18.431398391723633 C -3.3900742530822754,18.20350456237793 -3.4754621982574463,17.98384666442871 -3.52925968170166,17.755952835083008 C -4.003668785095215,15.7462797164917 0.7854772210121155,22.43463134765625 1.9707788228988647,22.580549240112305 C 4.9046549797058105,22.941728591918945 9.909817695617676,25.21507453918457 11.041023254394531,22.48405647277832 C 11.965415954589844,20.252336502075195 12.776901245117188,19.134740829467773 13.16384506225586,21.519140243530273 C 13.612070083618164,24.281166076660156 16.175209045410156,20.08114242553711 18.760377883911133,19.01034927368164 C 19.9582576751709,18.514179229736328 19.04236602783203,15.738040924072266 20.304250717163086,15.440147399902344 C 21.590431213378906,15.136517524719238 23.184844970703125,13.735069274902344 23.488489151000977,12.448894500732422 C 23.48849105834961,12.448884963989258 23.641530990600586,7.702057838439941 23.9709415435791,7.624297142028809 C 26.264841079711914,7.082800388336182 27.23624610900879,-0.2836301326751709 25.12885093688965,-1.1564691066741943 C 24.259708404541016,-1.5164501667022705 25.778331756591797,-4.050523281097412 25.418325424194336,-4.9196553230285645 C 24.657670974731445,-6.756039142608643 21.852794647216797,-9.094579696655273 19.91828155517578,-9.55126667022705 C 18.831443786621094,-9.807840347290039 19.11344337463379,-11.938136100769043 18.85687255859375,-13.02497386932373 C 18.274911880493164,-15.490163803100586 22.40274429321289,-15.239877700805664 24.74287986755371,-16.209209442138672 C 25.5783748626709,-15.050012588500977 27.62456703186035,-14.811284065246582 28.21658706665039,-13.989893913269043 C 26.907392501831055,-13.447599411010742 31.27401351928711,-10.612677574157715 29.856948852539062,-10.612677574157715 C 28.189979553222656,-10.612677574157715 25.06988525390625,-10.512401580810547 25.70779800415039,-8.97231674194336 C 25.80011558532715,-8.749439239501953 29.737152099609375,-8.8250150680542 30.33941078186035,-8.682839393615723 C 34.25397872924805,-7.758725643157959 33.4931526184082,-6.367031097412109 29.470985412597656,-6.367031097412109 C 27.474746704101562,-6.367031097412109 29.382495880126953,-6.0884904861450195 30.14642906188965,-4.244207859039307 C 30.75754165649414,-2.7688639163970947 33.168888092041016,-2.837918281555176 34.102603912353516,-1.5424344539642334 C 35.979312896728516,1.0614162683486938 34.628421783447266,2.026339054107666 32.751712799072266,-0.5775153636932373 C 32.30906295776367,-1.1916730403900146 30.97504425048828,-0.4458194971084595 30.532394409179688,-1.059976577758789 C 31.136045455932617,0.3972931504249573 32.53666305541992,1.3763196468353271 33.52364730834961,2.606720447540283 C 35.76462936401367,5.40038537979126 33.28508377075195,7.732694625854492 32.46223831176758,4.247082233428955 C 32.13912582397461,2.8783504962921143 28.95051383972168,1.3903332948684692 28.12009620666504,2.220750570297241 C 26.21599006652832,4.12485408782959 30.20270538330078,10.104931831359863 32.94469451904297,9.457649230957031 C 33.504669189453125,9.325459480285645 33.18505859375,8.133960723876953 33.71662902832031,7.913774490356445 C 33.8355712890625,7.864506244659424 34.56260299682617,8.252520561218262 34.68154525756836,8.203251838684082 C 34.68154525756836,10.876883506774902 34.76255416870117,10.80853271484375 31.59381103515625,10.80853271484375 C 30.181217193603516,10.80853271484375 32.12903594970703,11.706252098083496 33.330665588378906,12.448894500732422 C 35.61738967895508,13.862160682678223 33.24871063232422,15.358172416687012 31.497318267822266,13.60679817199707 C 29.925424575805664,12.034917831420898 30.92556381225586,15.00101089477539 32.09423828125,16.892004013061523 C 31.96478271484375,16.3436222076416 29.797901153564453,15.126847267150879 29.668445587158203,14.578463554382324 C 27.072324752807617,15.19133186340332 26.479732513427734,17.21129608154297 26.479732513427734,19.87877655029297 C 26.479732513427734,20.824748992919922 28.51260757446289,20.07830047607422 29.1815128326416,20.747203826904297 C 31.178512573242188,22.74419593811035 26.49073028564453,22.36282730102539 24.839370727539062,20.071758270263672 C 24.407630920410156,20.503498077392578 26.814979553222656,23.40320587158203 26.38323974609375,23.834945678710938 C 25.498260498046875,24.719924926757812 23.77796173095703,20.267589569091797 23.77796173095703,21.519140243530273 C 23.77796173095703,22.339162826538086 24.525564193725586,22.980850219726562 24.839370727539062,23.738452911376953 C 25.35866355895996,24.992158889770508 22.49916648864746,25.872690200805664 22.716552734375,27.2121639251709 C 22.978378295898438,28.82544708251953 21.428258895874023,28.902507781982422 19.91828155517578,29.527969360351562 C 19.756025314331055,29.595178604125977 19.470870971679688,30.937421798706055 19.146345138549805,31.071842193603516 C 17.471538543701172,31.765562057495117 16.590099334716797,29.874887466430664 15.286670684814453,29.334983825683594 C 14.247047424316406,28.904356002807617 13.517189979553223,31.071842193603516 12.391908645629883,31.071842193603516 C 11.73669147491455,31.071842193603516 12.328764915466309,29.92272186279297 12.005940437316895,30.492889404296875 C 11.438976287841797,31.4942569732666 11.67903995513916,33.0765380859375 10.46207332611084,33.580631256103516 C 9.95077896118164,33.79241943359375 8.947038650512695,32.63451385498047 8.43574333190918,32.4227294921875 C 7.03680419921875,31.843273162841797 5.7835259437561035,31.700014114379883 5.540981292724609,33.19466018676758 C 5.320699214935303,34.55211639404297 0.33041462302207947,32.7038688659668 0.33041462302207947,31.26482582092285 C 0.33041462302207947,27.805328369140625 -2.1783738136291504,27.41935920715332 -2.1783738136291504,30.878856658935547 C -2.3115670680999756,30.557300567626953 -4.264493942260742,30.621461868286133 -4.3976874351501465,30.29990577697754 C -5.854740142822266,26.782270431518555 -6.591155052185059,21.923044204711914 -6.134544849395752,19.01034927368164 C -6.043222904205322,18.42780876159668 -5.548671722412109,18.242271423339844 -5.459099769592285,17.659460067749023" fill="rgb(75,75,75)" opacity="0.25" stroke="rgb(75,75,75)" /><path d="M12.306878089904785,62.124046325683594 C 12.306878089904785,61.506500244140625 15.727093696594238,62.085205078125 16.127960205078125,60.38719177246094 C 16.65178108215332,62.60605239868164 22.533510208129883,60.22987365722656 21.10694122314453,62.00825500488281 C 21.009084701538086,62.130245208740234 20.74163818359375,62.696800231933594 20.643779754638672,62.81879425048828 C 21.16942024230957,63.0365104675293 22.4339542388916,63.49967956542969 22.9595890045166,63.281951904296875 C 23.331157684326172,63.12804412841797 22.993240356445312,61.217803955078125 23.306961059570312,60.96614456176758 C 26.173559188842773,58.66663360595703 28.35053825378418,60.5676155090332 30.949125289916992,63.166160583496094 C 33.755680084228516,65.97267150878906 37.3046989440918,62.10419464111328 35.34915542602539,58.65033721923828 C 34.95492935180664,57.95405197143555 33.65346908569336,56.72639083862305 33.95967102050781,55.98715591430664 C 34.76737976074219,54.037174224853516 38.83617401123047,52.30577087402344 39.401817321777344,53.67135238647461 C 40.49525451660156,56.3111457824707 41.2031364440918,51.91111755371094 42.29657745361328,49.27132034301758 C 44.15346908569336,50.60969924926758 47.924835205078125,48.018959045410156 49.128204345703125,49.966064453125 C 48.57868576049805,47.63831329345703 48.7106819152832,43.08877182006836 50.40190505981445,41.39757537841797 C 51.377193450927734,40.422298431396484 53.6136474609375,41.29714584350586 54.338775634765625,40.123878479003906 C 55.052452087402344,38.96913528442383 54.42100524902344,37.146907806396484 55.380889892578125,36.187015533447266 C 56.17342758178711,35.39446258544922 59.0046272277832,33.169857025146484 59.43354797363281,32.13434982299805 C 59.87278747558594,31.073925018310547 60.26801300048828,24.85787010192871 60.70724105834961,23.797443389892578 C 61.14973831176758,22.729122161865234 66.80367279052734,21.683456420898438 67.65465545654297,19.62899398803711 C 67.97454071044922,18.856719970703125 66.3509521484375,14.156844139099121 65.45464324951172,13.26052188873291 C 64.29674530029297,12.102608680725098 61.04701614379883,11.918742179870605 62.55988693237305,11.292088508605957 C 66.05269622802734,9.845318794250488 65.58952331542969,11.117820739746094 62.09672927856445,9.671019554138184 C 61.213279724121094,9.305073738098145 64.01420593261719,8.606794357299805 64.5283203125,6.428893089294434 C 65.34190368652344,2.9824087619781494 62.86387634277344,-2.7619099617004395 60.3598747253418,-5.265931606292725 C 54.88230895996094,-10.743534088134766 67.68203735351562,-15.127006530761719 68.81256866455078,-8.16069221496582 C 69.35005187988281,-4.8487229347229 72.7597885131836,4.950089454650879 71.47573852539062,8.049960136413574 C 71.4025650024414,8.226603507995605 69.64159393310547,8.324613571166992 69.27572631835938,9.207862854003906 C 69.57874298095703,9.395135879516602 70.47798156738281,10.525860786437988 70.78099822998047,10.713133811950684 C 69.68356323242188,10.972193717956543 68.03367614746094,11.292437553405762 68.46519470214844,12.334200859069824 C 69.23802947998047,14.199987411499023 72.15152740478516,16.13567543029785 70.43363189697266,17.197397232055664 C 68.94482421875,18.117528915405273 68.23361206054688,21.352506637573242 68.23361206054688,23.102703094482422 C 68.23361206054688,23.798513412475586 69.39151763916016,24.14374351501465 69.39151763916016,24.839555740356445 C 69.39151763916016,26.26467514038086 68.27647399902344,26.56064224243164 67.88624572753906,27.502737045288086 C 67.58936309814453,28.21946907043457 69.44554901123047,29.81854248046875 67.65465545654297,29.81854248046875 C 67.65465545654297,32.21829605102539 63.941463470458984,38.948944091796875 63.02305221557617,41.16600036621094 C 61.4587287902832,44.942298889160156 57.117733001708984,48.84298324584961 57.117733001708984,44.755496978759766 C 57.117733001708984,43.777706146240234 55.380889892578125,44.48531723022461 55.380889892578125,43.82917404174805 C 55.67145538330078,44.03860092163086 54.742942810058594,45.58818435668945 55.033512115478516,45.797611236572266 C 59.00630569458008,48.6609992980957 55.7368278503418,52.72365951538086 51.212432861328125,54.59767532348633 C 51.35148239135742,54.93335723876953 51.42075729370117,56.9251708984375 51.559810638427734,57.2608528137207 C 51.01412582397461,57.63330078125 50.137054443359375,57.11998748779297 49.59136962890625,57.492435455322266 C 48.538883209228516,58.21079635620117 48.56863021850586,60.13111877441406 47.391353607177734,60.6187744140625 C 43.30686569213867,62.310646057128906 40.05155944824219,67.01908111572266 38.35970687866211,62.9345817565918 C 37.49290466308594,63.47029113769531 37.95281219482422,65.17784118652344 37.08600997924805,65.71354675292969 C 33.997467041015625,67.62236022949219 27.384563446044922,67.82274627685547 25.622770309448242,66.06092071533203 C 27.507490158081055,69.11045837402344 24.855308532714844,70.7840347290039 21.454315185546875,69.65042114257812 C 21.344621658325195,69.61385345458984 16.012117385864258,65.13455200195312 15.66479778289795,64.78722381591797 C 15.317479133605957,64.43989562988281 12.306878089904785,62.74159240722656 12.306878089904785,62.124046325683594" fill="rgb(75,75,75)" opacity="0.25" stroke="rgb(75,75,75)" /><path d="M78.082763671875,50.91998291015625 C 76.45975494384766,50.91998291015625 75.216796875,53.88456726074219 74.1426773071289,55.10129928588867 C 73.77228546142578,55.52086639404297 74.1472396850586,56.43375015258789 73.66021728515625,56.70949935913086 C 72.12342834472656,57.57960510253906 68.80307006835938,56.76652145385742 69.47889709472656,58.39810562133789 C 70.56578826904297,61.022090911865234 70.39170837402344,61.55349349975586 67.95111083984375,63.061885833740234 C 67.10546112060547,63.58453369140625 68.63946533203125,58.322574615478516 68.4335708618164,58.23728561401367 C 66.66844940185547,57.506103515625 64.48602294921875,61.21633529663086 65.21717071533203,62.98147201538086 C 65.38863372802734,63.39542770385742 67.45800018310547,64.41695404052734 67.62947082519531,64.83090209960938 C 68.29993438720703,66.4494857788086 65.82296752929688,66.40255737304688 64.3326644897461,67.3236083984375 C 63.285804748535156,67.9706039428711 59.59971237182617,69.98865509033203 58.46273422241211,70.4595947265625 C 58.25835418701172,69.96620178222656 57.247215270996094,69.54389190673828 56.9349479675293,69.97714233398438 C 56.171329498291016,71.03659057617188 56.57001876831055,71.92178344726562 57.256587982177734,73.03271484375 C 57.07386016845703,72.84999084472656 55.4290657043457,73.29585266113281 55.246334075927734,73.11312866210938 C 53.32756805419922,71.19441223144531 51.32783889770508,71.95713806152344 52.91444778442383,74.15845489501953 C 54.10460662841797,75.80972290039062 50.527381896972656,74.64091491699219 48.49190139770508,74.64091491699219 C 47.50273132324219,74.64091491699219 42.807044982910156,76.16870880126953 41.817874908447266,76.16870880126953 C 40.82870101928711,76.16870880126953 34.705177307128906,75.7815933227539 34.16600799560547,74.70330810546875 C 33.62683868408203,73.62503051757812 34.82122039794922,74.03890991210938 35.93502426147461,73.57756805419922 C 37.50118637084961,72.92887115478516 39.109771728515625,72.35881805419922 40.759620666503906,71.96937561035156 C 42.0550422668457,71.66358947753906 43.24583435058594,72.95822143554688 44.37807083129883,73.6579818725586 C 46.03105545043945,74.6795883178711 49.45099639892578,73.1825942993164 48.07693099975586,71.80855560302734 C 46.66425323486328,70.39591217041016 48.11847686767578,69.06887817382812 47.272830963134766,69.63748931884766 C 45.23600387573242,71.00704193115234 43.01110076904297,72.25276184082031 43.01110076904297,69.79830932617188 C 45.731719970703125,69.27436828613281 47.79902267456055,66.3406753540039 50.569637298583984,66.3406753540039 C 51.269039154052734,66.3406753540039 49.789817810058594,68.27051544189453 50.48922348022461,68.27051544189453 C 53.1659049987793,68.27051544189453 56.95933151245117,69.63784790039062 55.39423751831055,67.46641540527344 C 54.93575668334961,66.83031463623047 53.2447395324707,66.10018157958984 53.544803619384766,65.37576293945312 C 53.8989372253418,64.52080535888672 53.673133850097656,63.49677276611328 54.02726745605469,62.64181900024414 C 54.21585464477539,62.1865348815918 56.58253479003906,63.302249908447266 56.84161376953125,62.883052825927734 C 57.998817443847656,61.01066589355469 59.62732696533203,58.75349807739258 61.18375015258789,60.3099365234375 C 63.26103210449219,62.38723373413086 62.3582763671875,58.82695388793945 63.033180236816406,55.967796325683594 C 63.12057113647461,55.59757614135742 66.64722442626953,51.78303527832031 66.9732666015625,51.7060661315918 C 67.82776641845703,51.50434112548828 68.9255599975586,51.76403045654297 69.54638671875,51.1431999206543 C 70.72572326660156,49.963863372802734 69.54638671875,48.35565185546875 69.54638671875,46.961875915527344 C 69.54638671875,45.5681037902832 79.70576477050781,50.91998291015625 78.082763671875,50.91998291015625" fill="rgb(75,75,75)" opacity="0.25" stroke="rgb(75,75,75)" /><path d="M-77.8907699584961,-85.78884887695312 C -78.04578399658203,-86.67916107177734 -78.20079040527344,-87.5694808959961 -78.35580444335938,-88.45980072021484 C -68.03071594238281,-84.08802032470703 -58.487396240234375,-75.82605743408203 -52.071128845214844,-63.95307540893555 C -52.56163024902344,-63.60626983642578 -53.05213165283203,-63.259464263916016 -53.54263687133789,-62.912662506103516 C -59.25755310058594,-71.87821960449219 -68.21119689941406,-81.96058654785156 -77.8907699584961,-85.78884887695312" fill="rgb(255,234,117)" opacity="1.0" stroke="rgb(255,234,117)" /><path d="M-46.40376281738281,-112.3307876586914 C -46.0212287902832,-110.19292449951172 -45.63869857788086,-108.05506896972656 -45.25616455078125,-105.91720581054688 C -46.215091705322266,-99.21478271484375 -46.08030700683594,-93.76546478271484 -46.01038360595703,-86.87915802001953 C -45.947166442871094,-80.65289306640625 -43.61903381347656,-71.26018524169922 -41.600704193115234,-66.81385803222656 C -42.18574905395508,-66.6402816772461 -42.770790100097656,-66.4666976928711 -43.3558349609375,-66.29312133789062 C -45.54143142700195,-69.17701721191406 -47.18655014038086,-78.42247009277344 -47.31755447387695,-88.13905334472656 C -47.42665100097656,-96.2305908203125 -48.38056945800781,-107.21293640136719 -46.40376281738281,-112.3307876586914" fill="rgb(255,234,117)" opacity="1.0" stroke="rgb(255,234,117)" /><path d="M78.39884185791016,48.072547912597656 C 74.67523193359375,37.1886100769043 67.26214599609375,-1.0122305154800415 81.40843963623047,-4.139585018157959 C 101.67277526855469,-8.619467735290527 104.65373992919922,25.10808563232422 107.80512237548828,47.54570388793945 C 109.74711608886719,61.37256622314453 112.97129821777344,80.38331604003906 100.9416275024414,82.64466857910156 C 92.92929077148438,84.15084075927734 87.21410369873047,73.83916473388672 78.39884185791016,48.072547912597656" fill="rgb(168,140,64)" opacity="1.0" stroke="rgb(168,140,64)" /><path d="M-60.90212631225586,126.14994812011719 C -70.32611846923828,119.55348205566406 -97.07032775878906,91.14704895019531 -86.93746948242188,80.79219818115234 C -72.42231750488281,65.95903778076172 -50.15565490722656,90.27285766601562 -36.571434020996094,108.02581787109375 C -29.274805068969727,117.56163787841797 -22.626100540161133,131.3472137451172 -29.52454376220703,137.96282958984375 C -34.119239807128906,142.36915588378906 -47.833805084228516,135.2973175048828 -60.90212631225586,126.14994812011719" fill="rgb(168,140,64)" opacity="1.0" stroke="rgb(168,140,64)" /><path d="M28.388822555541992,20.322582244873047 C 27.713388442993164,18.535398483276367 27.891071319580078,17.678884506225586 29.07697868347168,16.706037521362305 C 45.229862213134766,25.16708755493164 62.38786697387695,33.932796478271484 79.0433120727539,42.114646911621094 C 79.69020080566406,45.07844161987305 80.33709716796875,48.042240142822266 80.98397827148438,51.00603485107422 C 62.89385223388672,40.94573974609375 38.94051742553711,25.580617904663086 28.388822555541992,20.322582244873047" fill="rgb(168,140,64)" opacity="1.0" stroke="rgb(168,140,64)" /><path d="M4.909440040588379,33.86412811279297 C 6.67346715927124,33.130340576171875 7.535353660583496,33.279788970947266 8.54664134979248,34.4330940246582 C 0.6208542585372925,50.8552360534668 -26.890239715576172,101.50064849853516 -32.714134216308594,120.22222137451172 C -34.63612365722656,118.09454345703125 -36.55811309814453,115.96685028076172 -38.4801025390625,113.83917236328125 C -29.01957893371582,95.42829132080078 0.0009102746844291687,44.58287811279297 4.909440040588379,33.86412811279297" fill="rgb(168,140,64)" opacity="1.0" stroke="rgb(168,140,64)" /><path d="M17.341659545898438,-86.88834381103516 C 31.1101131439209,-108.06175994873047 49.08818435668945,-137.91549682617188 56.91355895996094,-137.09255981445312 C 61.48549270629883,-136.61175537109375 61.409454345703125,-127.15191650390625 61.67060852050781,-121.81434631347656 C 62.12908172607422,-112.44408416748047 49.04781723022461,-84.3414077758789 45.19495391845703,-77.08360290527344 C 37.37501907348633,-62.35285186767578 17.617883682250977,-45.40843963623047 6.538838863372803,-26.791889190673828 C 2.8772430419921875,-29.090726852416992 -0.7843522429466248,-31.389562606811523 -4.445948123931885,-33.68840026855469 C -0.8886964321136475,-54.849098205566406 8.659651756286621,-73.53697204589844 17.341659545898438,-86.88834381103516" fill="rgb(208,247,255)" opacity="1.0" stroke="rgb(208,247,255)" /><path d="M-101.01434326171875,-16.336151123046875 C -99.978271484375,-18.377166748046875 -98.94219970703125,-20.418184280395508 -97.9061279296875,-22.459199905395508 C -88.13636016845703,-16.878557205200195 -72.60164642333984,-13.035663604736328 -60.52735900878906,-12.009347915649414 C -49.089847564697266,-11.037158966064453 -40.402061462402344,-13.899035453796387 -30.402231216430664,-16.636348724365234 C -30.23004722595215,-14.910859107971191 -30.057859420776367,-13.185371398925781 -29.88567543029785,-11.459883689880371 C -37.82046890258789,-7.090625286102295 -50.79228591918945,-5.654006004333496 -63.99536895751953,-7.26420259475708 C -76.67072296142578,-8.810038566589355 -90.76776123046875,-12.30704402923584 -101.01434326171875,-16.336151123046875" fill="rgb(255,234,117)" opacity="1.0" stroke="rgb(255,234,117)" /><path d="M-94.52403259277344,-51.58838653564453 C -99.47328186035156,-53.555519104003906 -96.1806640625,-64.71208190917969 -93.06106567382812,-72.11646270751953 C -89.6757583618164,-80.15150451660156 -81.85104370117188,-90.5336685180664 -78.22872161865234,-88.81272888183594 C -75.02508544921875,-87.29072570800781 -76.76294708251953,-75.87202453613281 -79.82569885253906,-68.5527114868164 C -83.20843505859375,-60.468692779541016 -89.17872619628906,-49.46384048461914 -94.52403259277344,-51.58838653564453" fill="rgb(255,234,117)" opacity="1.0" stroke="rgb(255,234,117)" /><path d="M-28.38127326965332,-79.342529296875 C -32.03550720214844,-77.55005645751953 -37.62641525268555,-87.34675598144531 -40.93777084350586,-94.17220306396484 C -44.464046478271484,-101.440673828125 -49.01805877685547,-112.82046508789062 -45.06514358520508,-114.44915771484375 C -41.56914520263672,-115.88959503173828 -35.354530334472656,-107.38746643066406 -32.049922943115234,-100.81106567382812 C -28.232080459594727,-93.21330261230469 -24.434619903564453,-81.2784423828125 -28.38127326965332,-79.342529296875" fill="rgb(255,234,117)" opacity="1.0" stroke="rgb(255,234,117)" /><path d="M-33.17638397216797,-11.084203720092773 C -33.47315979003906,-24.78815269470215 -24.099321365356445,-37.167259216308594 -10.407217025756836,-37.80953598022461 C 4.812747955322266,-38.52348327636719 17.607030868530273,-25.838407516479492 17.5725040435791,-10.60174560546875 C 17.539907455444336,3.7834837436676025 5.419990539550781,15.361045837402344 -8.959840774536133,14.965682029724121 C -22.840503692626953,14.584043502807617 -32.87574005126953,2.798450469970703 -33.17638397216797,-11.084203720092773" fill="rgb(130,100,41)" opacity="1.0" stroke="rgb(130,100,41)" /><path d="M-133.8248748779297,-29.1901798248291 C -133.61160278320312,-39.746795654296875 -124.45657348632812,-47.59075927734375 -113.8984146118164,-47.476280212402344 C -103.85379791259766,-47.367366790771484 -95.504150390625,-39.71620559692383 -95.32283020019531,-29.672639846801758 C -95.1290283203125,-18.93766975402832 -103.74105834960938,-10.032490730285645 -114.47737121582031,-9.939157485961914 C -125.13261413574219,-9.846529960632324 -134.0401153564453,-18.53670883178711 -133.8248748779297,-29.1901798248291" fill="rgb(255,234,117)" opacity="1.0" stroke="rgb(255,234,117)" /><path d="M-11.559026718139648,-129.47994995117188 C -11.758233070373535,-140.86965942382812 -1.8561713695526123,-149.9582061767578 9.530924797058105,-149.64358520507812 C 20.249900817871094,-149.347412109375 28.117740631103516,-140.31716918945312 28.30507469177246,-129.59573364257812 C 28.486581802368164,-119.20780944824219 21.173786163330078,-110.19767761230469 10.80461597442627,-109.54789733886719 C -0.8680254220962524,-108.81643676757812 -11.35450267791748,-117.78619384765625 -11.559026718139648,-129.47994995117188" fill="rgb(255,234,117)" opacity="1.0" stroke="rgb(255,234,117)" /><path d="M-6.535635948181152,-31.765403747558594 C -4.2167487144470215,-35.319644927978516 2.7279555797576904,-45.080238342285156 6.476369857788086,-60.83877182006836 C 10.157145500183105,-76.31295013427734 10.776905059814453,-98.35376739501953 6.4861016273498535,-112.00492095947266 C 9.2433500289917,-112.19336700439453 12.000598907470703,-112.38182067871094 14.757847785949707,-112.57027435302734 C 17.451658248901367,-98.63777923583984 13.906410217285156,-76.60669708251953 10.70398235321045,-60.010589599609375 C 7.501553535461426,-43.41448211669922 0.2500545382499695,-33.198822021484375 -2.6352944374084473,-28.905868530273438 C -4.51707649230957,-27.338483810424805 -7.588047504425049,-29.558406829833984 -6.535635948181152,-31.765403747558594" fill="rgb(255,234,117)" opacity="1.0" stroke="rgb(255,234,117)" /><path d="M-60.8707389831543,-15.979045867919922 C -65.84984588623047,-21.479646682739258 -66.6934585571289,-55.32965850830078 -54.3287467956543,-63.788658142089844 C -40.73741149902344,-73.0868148803711 -11.282708168029785,-67.25302124023438 -6.28755521774292,-56.22770690917969 C 0.42036139965057373,-41.421974182128906 -8.858370780944824,-24.41009521484375 -24.871726989746094,-17.496044158935547 C -38.472389221191406,-11.623717308044434 -53.33340072631836,-7.652272701263428 -60.8707389831543,-15.979045867919922" fill="rgb(255,234,117)" opacity="1.0" stroke="rgb(255,234,117)" /><path d="M-46.60165786743164,-29.644622802734375 C -38.460304260253906,-28.297605514526367 -28.228286743164062,-35.39363098144531 -23.86619758605957,-40.07735824584961 C -19.155664443969727,-36.8678092956543 -16.076248168945312,-29.812278747558594 -17.61477279663086,-24.015926361083984 C -19.74208641052246,-16.001327514648438 -28.729578018188477,-12.691789627075195 -36.249332427978516,-14.62851619720459 C -43.195091247558594,-16.417409896850586 -46.528099060058594,-23.54031753540039 -46.60165786743164,-29.644622802734375" fill="rgb(255,255,255)" opacity="1.0" stroke="rgb(255,255,255)" /><path d="M-45.9362678527832,-58.207000732421875 C -45.9362678527832,-67.88912200927734 -38.07600021362305,-76.09223937988281 -28.400177001953125,-75.74309539794922 C -18.058565139770508,-75.36991882324219 -10.31491756439209,-66.01990509033203 -11.05706787109375,-55.698211669921875 C -11.699586868286133,-46.76218032836914 -19.446788787841797,-40.35105514526367 -28.400177001953125,-40.67091369628906 C -38.07612228393555,-41.01658248901367 -45.9362678527832,-48.52488327026367 -45.9362678527832,-58.207000732421875" fill="rgb(29,23,12)" opacity="1.0" stroke="rgb(29,23,12)" /><path d="M-75.98238372802734,-41.53904342651367 C -75.9918441772461,-50.396480560302734 -69.58646392822266,-58.494571685791016 -60.73046112060547,-58.3348503112793 C -51.60549545288086,-58.1702766418457 -44.96055603027344,-49.57393264770508 -45.64956283569336,-40.47352981567383 C -46.28912353515625,-32.02619552612305 -53.52684783935547,-25.7125301361084 -61.9848518371582,-26.190628051757812 C -70.08182525634766,-26.6483211517334 -75.97372436523438,-33.42914962768555 -75.98238372802734,-41.53904342651367" fill="rgb(29,23,12)" opacity="1.0" stroke="rgb(29,23,12)" /><path d="M-44.734832763671875,-64.66667938232422 C -41.603179931640625,-71.97518157958984 -34.79404830932617,-76.5028076171875 -26.695817947387695,-75.33479309082031 C -17.839548110961914,-74.05744934082031 -11.207707405090332,-67.47222900390625 -11.069091796875,-58.568931579589844 C -14.78594970703125,-54.27580642700195 -21.206653594970703,-50.82882308959961 -28.250411987304688,-51.452266693115234 C -35.632049560546875,-52.10561752319336 -44.60068893432617,-55.97334671020508 -44.734832763671875,-64.66667938232422" fill="rgb(255,255,255)" opacity="1.0" stroke="rgb(255,255,255)" /><path d="M-75.44831848144531,-45.61905288696289 C -72.6863784790039,-52.33152770996094 -67.92285919189453,-58.24351119995117 -60.24929428100586,-58.08784103393555 C -53.18222427368164,-57.94447326660156 -48.50077819824219,-53.688804626464844 -46.72880172729492,-46.04629135131836 C -47.8936882019043,-40.06822967529297 -54.995418548583984,-35.30923080444336 -61.43309783935547,-35.78521728515625 C -68.1795883178711,-36.284034729003906 -73.52238464355469,-38.81141662597656 -75.44831848144531,-45.61905288696289" fill="rgb(255,255,255)" opacity="1.0" stroke="rgb(255,255,255)" /></g></defs><rect fill="rgb(158,214,238)" height="100%" opacity="1.0" width="100%" x="-1412.5" y="-1977.5" /><use height="100" transform="rotate(-26.60735605268304,-1036.5635986328125,1697.307373046875)" width="100" x="-1036.5635986328125" xlink:href="#Group" y="1697.307373046875" /><use height="100" transform="rotate(-6.803345920193887,-473.6225280761719,1756.5439453125)" width="100" x="-473.6225280761719" xlink:href="#Group" y="1756.5439453125" /><use height="100" transform="rotate(25.199760896744113,-0.45649129152297974,1737.1016845703125)" width="100" x="-0.45649129152297974" xlink:href="#Group.001" y="1737.1016845703125" /><use height="100" transform="rotate(158.76486848799857,515.1593017578125,1703.178466796875)" width="100" x="515.1593017578125" xlink:href="#Group" y="1703.178466796875" /><use height="100" transform="rotate(-5.426959749034601,959.385986328125,1779.216064453125)" width="100" x="959.385986328125" xlink:href="#Group.001" y="1779.216064453125" /><use height="100" transform="rotate(-30.807174075209776,-1216.4234619140625,1305.7613525390625)" width="100" x="-1216.4234619140625" xlink:href="#Group.001" y="1305.7613525390625" /><use height="100" transform="rotate(13.852366851101161,-723.77197265625,1348.8275146484375)" width="100" x="-723.77197265625" xlink:href="#Group" y="1348.8275146484375" /><use height="100" transform="rotate(-15.067152383380922,-255.46127319335938,1276.8841552734375)" width="100" x="-255.46127319335938" xlink:href="#Group.001" y="1276.8841552734375" /><use height="100" transform="rotate(109.64501747620325,222.876220703125,1254.510986328125)" width="100" x="222.876220703125" xlink:href="#Group" y="1254.510986328125" /><use height="100" transform="rotate(18.272255947082083,790.1427612304688,1345.9791259765625)" width="100" x="790.1427612304688" xlink:href="#Group" y="1345.9791259765625" /><use height="100" transform="rotate(129.9631935237522,1202.5445556640625,1294.8968505859375)" width="100" x="1202.5445556640625" xlink:href="#Group" y="1294.8968505859375" /><use height="100" transform="rotate(-168.31471745385718,-956.0850830078125,877.9049682617188)" width="100" x="-956.0850830078125" xlink:href="#Group.001" y="877.9049682617188" /><use height="100" transform="rotate(-150.03571456572075,-528.340087890625,873.813720703125)" width="100" x="-528.340087890625" xlink:href="#Group" y="873.813720703125" /><use height="100" transform="rotate(-16.92043705251344,-47.09592056274414,893.8562622070312)" width="100" x="-47.09592056274414" xlink:href="#Group" y="893.8562622070312" /><use height="100" transform="rotate(-90.1586812736616,493.78875732421875,866.4441528320312)" width="100" x="493.78875732421875" xlink:href="#Group.001" y="866.4441528320312" /><use height="100" transform="rotate(107.02358025801409,973.3084716796875,892.938720703125)" width="100" x="973.3084716796875" xlink:href="#Group" y="892.938720703125" /><use height="100" transform="rotate(-56.00777048381999,-1278.1219482421875,437.0523681640625)" width="100" x="-1278.1219482421875" xlink:href="#Group" y="437.0523681640625" /><use height="100" transform="rotate(-119.71069268620073,-771.0218505859375,480.8637390136719)" width="100" x="-771.0218505859375" xlink:href="#Group" y="480.8637390136719" /><use height="100" transform="rotate(9.856943931579067,-216.24220275878906,427.3672790527344)" width="100" x="-216.24220275878906" xlink:href="#Group.001" y="427.3672790527344" /><use height="100" transform="rotate(56.39634362523728,264.22943115234375,464.4220886230469)" width="100" x="264.22943115234375" xlink:href="#Group" y="464.4220886230469" /><use height="100" transform="rotate(-16.307413637356113,799.2543334960938,397.0180358886719)" width="100" x="799.2543334960938" xlink:href="#Group.001" y="397.0180358886719" /><use height="100" transform="rotate(-1.2622838777080503,1212.0889892578125,449.7431945800781)" width="100" x="1212.0889892578125" xlink:href="#Group.001" y="449.7431945800781" /><use height="100" transform="rotate(-171.49155682467187,-977.8515625,-21.119176864624023)" width="100" x="-977.8515625" xlink:href="#Group" y="-21.119176864624023" /><use height="100" transform="rotate(-56.396711909086164,-456.3559265136719,7.789299964904785)" width="100" x="-456.3559265136719" xlink:href="#Group.001" y="7.789299964904785" /><use height="100" transform="rotate(-86.96850244454046,33.003570556640625,-17.030555725097656)" width="100" x="33.003570556640625" xlink:href="#Group" y="-17.030555725097656" /><use height="100" transform="rotate(143.93466413351405,480.33685302734375,-8.758060455322266)" width="100" x="480.33685302734375" xlink:href="#Group.001" y="-8.758060455322266" /><use height="100" transform="rotate(167.60287109033462,1038.2479248046875,-34.61974334716797)" width="100" x="1038.2479248046875" xlink:href="#Group" y="-34.61974334716797" /><use height="100" transform="rotate(114.134283792115,-1249.4715576171875,-441.9129333496094)" width="100" x="-1249.4715576171875" xlink:href="#Group.001" y="-441.9129333496094" /><use height="100" transform="rotate(-98.8653579564824,-796.5474243164062,-407.2867126464844)" width="100" x="-796.5474243164062" xlink:href="#Group" y="-407.2867126464844" /><use height="100" transform="rotate(-127.27377699795085,-220.25958251953125,-424.444091796875)" width="100" x="-220.25958251953125" xlink:href="#Group.001" y="-424.444091796875" /><use height="100" transform="rotate(-19.559334661029887,217.3007354736328,-437.892578125)" width="100" x="217.3007354736328" xlink:href="#Group" y="-437.892578125" /><use height="100" transform="rotate(16.092779336227974,770.3040771484375,-450.4612731933594)" width="100" x="770.3040771484375" xlink:href="#Group.001" y="-450.4612731933594" /><use height="100" transform="rotate(171.71142095735166,1237.4703369140625,-426.90887451171875)" width="100" x="1237.4703369140625" xlink:href="#Group" y="-426.90887451171875" /><use height="100" transform="rotate(-99.64952188419903,-999.1573486328125,-893.8696899414062)" width="100" x="-999.1573486328125" xlink:href="#Group.001" y="-893.8696899414062" /><use height="100" transform="rotate(-37.8367175039147,-497.9061584472656,-855.3508911132812)" width="100" x="-497.9061584472656" xlink:href="#Group" y="-855.3508911132812" /><use height="100" transform="rotate(57.53660263149046,-1.0306479930877686,-818.98291015625)" width="100" x="-1.0306479930877686" xlink:href="#Group.001" y="-818.98291015625" /><use height="100" transform="rotate(-158.8373625857153,454.3487243652344,-886.3635864257812)" width="100" x="454.3487243652344" xlink:href="#Group.001" y="-886.3635864257812" /><use height="100" transform="rotate(-134.75400771837,1048.3187255859375,-875.34375)" width="100" x="1048.3187255859375" xlink:href="#Group.001" y="-875.34375" /><use height="100" transform="rotate(135.19233168672662,-1260.6400146484375,-1266.072998046875)" width="100" x="-1260.6400146484375" xlink:href="#Group" y="-1266.072998046875" /><use height="100" transform="rotate(-154.53832826113333,-749.776123046875,-1347.2457275390625)" width="100" x="-749.776123046875" xlink:href="#Group.001" y="-1347.2457275390625" /><use height="100" transform="rotate(-68.26909605263235,-222.94769287109375,-1302.9998779296875)" width="100" x="-222.94769287109375" xlink:href="#Group" y="-1302.9998779296875" /><use height="100" transform="rotate(87.78316516295264,286.02899169921875,-1272.2557373046875)" width="100" x="286.02899169921875" xlink:href="#Group.001" y="-1272.2557373046875" /><use height="100" transform="rotate(23.378660814218275,751.3771362304688,-1344.2847900390625)" width="100" x="751.3771362304688" xlink:href="#Group.001" y="-1344.2847900390625" /><use height="100" transform="rotate(-176.94711043708102,1257.779541015625,-1294.9512939453125)" width="100" x="1257.779541015625" xlink:href="#Group" y="-1294.9512939453125" /><use height="100" transform="rotate(32.610230570931805,-1023.0720825195312,-1736.8504638671875)" width="100" x="-1023.0720825195312" xlink:href="#Group" y="-1736.8504638671875" /><use height="100" transform="rotate(166.392409695385,-454.2883605957031,-1682.6217041015625)" width="100" x="-454.2883605957031" xlink:href="#Group" y="-1682.6217041015625" /><use height="100" transform="rotate(-118.25384902673434,28.365522384643555,-1764.099365234375)" width="100" x="28.365522384643555" xlink:href="#Group.001" y="-1764.099365234375" /><use height="100" transform="rotate(-43.931220858798646,538.6179809570312,-1756.1011962890625)" width="100" x="538.6179809570312" xlink:href="#Group" y="-1756.1011962890625" /><use height="100" transform="rotate(-144.35087341866523,1030.9139404296875,-1733.9185791015625)" width="100" x="1030.9139404296875" xlink:href="#Group.001" y="-1733.9185791015625" /></svg>